<svg width="754" height="268" viewBox="0 0 754 268" fill="none" xmlns="http://www.w3.org/2000/svg">
<g clip-path="url(#clip0_90_1646)">
<path d="M173.674 179.244C170.73 181.968 167.49 184.509 164.836 187.546L126.328 268L154.996 230.991L185.441 168.039C181.549 171.804 177.65 175.568 173.674 179.244Z" fill="#5E19D9"/>
<path d="M150.833 166.036C153.627 162.215 156.315 157.726 159.491 153.779L92.0903 120.863L28.1406 127.268L140.192 178.948C143.868 174.757 147.563 170.514 150.833 166.036Z" fill="#5E19D9"/>
<path d="M160.454 154.246C156.871 158.731 153.965 164.005 150.526 168.191C147.438 171.95 144.341 175.703 141.172 179.398L192.113 202.892L210.608 178.737L160.454 154.246Z" fill="#6B26E5"/>
<path d="M83.7463 247.61L103.505 206.331L0 156.775L16.6232 122.051L187.069 21.6514L233.58 43.9215L165.213 186.754L193.382 200.244L174.254 240.207L146.084 226.721L126.328 268L83.7463 247.61ZM160.421 87.414L157.802 86.1601L66.6231 139.547L122.633 166.366L160.421 87.414Z" fill="#8C4BFF"/>
<path d="M193.383 200.244L210.606 178.737L197.09 208.711L173.617 241.503L193.383 200.244Z" fill="#5E19D9"/>
<path d="M186.785 166.842L253.998 19.4777L233.578 43.9239L165.211 186.754C167.119 184.914 185.697 167.93 186.785 166.842Z" fill="#5E19D9"/>
<path d="M16.6211 122.051L46.9926 95.6063L213.54 0L187.067 21.6514L16.6211 122.051Z" fill="#6B26E5"/>
<path d="M187.066 21.6514L233.578 43.9216L253.998 19.4754L213.539 0L187.066 21.6514Z" fill="#D4BCFF"/>
</g>
<g clip-path="url(#clip1_90_1646)">
<path d="M361.719 233.159C364.238 226.554 366.574 219.848 369.294 213.316C367.459 213.172 365.611 212.938 363.733 212.58C354.944 210.904 347.504 207.333 341.411 201.866C335.314 196.401 330.608 189.474 327.287 181.096C323.966 172.715 322.034 163.187 321.494 152.508C320.947 141.833 321.814 130.562 324.082 118.693C326.394 106.593 329.763 95.743 334.184 86.1301C338.606 76.5219 343.906 68.4319 350.087 61.8649C356.263 55.2979 363.194 50.5966 370.877 47.7589C378.556 44.9235 386.794 44.3394 395.583 46.016C402.54 47.3451 408.669 49.9652 414.002 53.8341C416.57 48.7143 419.33 43.6891 421.958 38.6757C425.061 32.7472 427.944 26.7075 430.704 20.6158C431.883 18.0098 432.906 15.3281 433.976 12.6677C425.068 7.59519 415.088 3.99597 404.022 1.88184C388.344 -1.10963 373.588 -0.542074 359.754 3.57977C345.918 7.7087 333.462 14.6115 322.377 24.3001C311.292 33.9911 301.887 46.1556 294.168 60.7842C286.442 75.4199 280.862 91.7583 277.416 109.788C273.967 127.821 273.127 145.063 274.909 161.51C276.684 177.957 280.941 192.723 287.67 205.812C294.4 218.902 303.428 229.912 314.774 238.837C325.334 247.151 337.775 252.888 352.099 256.055C355.491 248.497 358.77 240.904 361.719 233.159Z" fill="#6B26E6"/>
<path d="M484.411 97.0914C482.628 80.6467 478.377 65.8761 471.649 52.787C464.92 39.6978 455.884 28.6921 444.548 19.7626C441.494 17.36 438.277 15.182 434.914 13.2074C433.853 15.8678 432.838 18.5447 431.64 21.1413C428.828 27.2117 426.009 33.2727 422.893 39.1989C420.24 44.243 417.454 49.3036 414.871 54.4613C415.79 55.1613 416.687 55.8896 417.553 56.6653C423.644 62.135 428.411 69.0686 431.851 77.4707C435.29 85.8729 437.295 95.3557 437.861 105.917C438.424 116.478 437.551 127.805 435.24 139.906C432.973 151.775 429.614 162.57 425.171 172.292C420.725 182.021 415.352 190.153 409.053 196.699C402.754 203.245 395.766 207.941 388.087 210.772C382.423 212.865 376.526 213.733 370.398 213.394C367.384 220.539 364.844 227.898 362.096 235.129C359.376 242.283 356.318 249.299 353.172 256.278C353.88 256.427 354.585 256.573 355.298 256.713C370.97 259.707 385.725 259.137 399.561 255.013C413.394 250.893 425.855 243.988 436.94 234.297C448.028 224.606 457.425 212.446 465.149 197.808C472.871 183.179 478.457 166.843 481.906 148.81C485.355 130.783 486.186 113.541 484.411 97.0914Z" fill="#5E19D9"/>
<path d="M382.981 266.113C367.305 263.119 353.796 257.157 342.458 248.233C331.112 239.31 322.084 228.297 315.356 215.208C308.624 202.119 304.37 187.353 302.593 170.904C300.81 154.461 301.651 137.22 305.099 119.183C308.546 101.154 314.125 84.8181 321.854 70.1824C329.573 55.5514 338.978 43.3845 350.063 33.696C361.148 24.0074 373.602 17.1022 387.443 12.978C401.274 8.86088 416.03 8.29333 431.708 11.2848C447.381 14.2763 460.885 20.2356 472.229 29.1627C483.569 38.0945 492.602 49.0979 499.332 62.187C506.064 75.2762 510.311 90.0467 512.096 106.491C513.871 122.941 513.038 140.183 509.589 158.212C506.14 176.246 500.556 192.58 492.834 207.211C485.108 221.849 475.711 234.008 464.625 243.699C453.54 253.39 441.079 260.295 427.246 264.415C413.405 268.534 398.656 269.107 382.981 266.113ZM391.419 221.981C399.969 223.61 408.082 223.012 415.765 220.17C423.444 217.339 430.434 212.64 436.733 206.097C443.028 199.551 448.403 191.418 452.849 181.692C457.294 171.968 460.651 161.173 462.919 149.306C465.234 137.203 466.107 125.878 465.539 115.315C464.976 104.756 462.968 95.2729 459.534 86.8708C456.092 78.4663 451.322 71.5351 445.234 66.0653C439.136 60.6003 431.817 57.0483 423.269 55.4166C414.478 53.7376 406.242 54.3241 398.566 57.1571C390.88 59.9972 383.951 64.6961 377.773 71.2655C371.592 77.8325 366.292 85.9225 361.873 95.5307C357.449 105.141 354.083 115.991 351.77 128.094C349.5 139.963 348.638 151.233 349.18 161.908C349.722 172.59 351.652 182.113 354.975 190.496C358.294 198.875 363 205.803 369.097 211.266C375.188 216.736 382.628 220.304 391.419 221.981Z" fill="#8C4BFF"/>
</g>
<g clip-path="url(#clip2_90_1646)">
<path d="M669.274 147.842C665.785 146.278 662.356 144.585 658.98 142.809C626.716 161.184 585.494 184.724 584.676 185.544C584.676 185.544 605.164 218.169 606.474 219.477C607.316 220.319 658.119 183.873 694.666 157.465C686.235 154.201 677.538 151.549 669.274 147.842Z" fill="#6B26E5"/>
<path d="M669.804 146.905C678.252 150.633 687.129 153.338 695.718 156.714C715.84 142.17 731.395 130.854 731.395 130.854L697.002 121.188C697.002 121.188 680.452 130.584 660.062 142.194C663.262 143.863 666.502 145.446 669.804 146.905Z" fill="#5E19D9"/>
<path d="M610.516 104.076L630.764 158.897L670.346 173.422L620.207 81.8245L610.516 104.076Z" fill="#5E19D9"/>
<path d="M672.504 186.891H643.176L669.278 232.493L709.073 249.271L672.504 186.891Z" fill="#5E19D9"/>
<path d="M709.07 249.271L685.723 209.441L585.844 268L566.203 234.493L578.537 35.2843L623.42 8.96993L704.209 146.788L731.392 130.852L753.999 169.415L726.816 185.353L750.163 225.181L709.07 249.271ZM618.461 94.6995L615.933 96.1822L609.068 202.566L663.119 170.878L618.461 94.6995Z" fill="#8C4BFF"/>
<path d="M533 225.377L566.204 234.493L585.846 268L550.762 259.111L533 225.377Z" fill="#5E19D9"/>
<path d="M533 225.377L566.204 234.493L578.538 35.2842L548.074 27.993L533 225.377Z" fill="#6B26E6"/>
<path d="M548.074 27.993L578.538 35.2842L623.421 8.96992L592.572 0L548.074 27.993Z" fill="#D4BCFF"/>
</g>
<defs>
<clipPath id="clip0_90_1646">
<rect width="254" height="268" fill="white"/>
</clipPath>
<clipPath id="clip1_90_1646">
<rect width="239" height="268" fill="white" transform="translate(274)"/>
</clipPath>
<clipPath id="clip2_90_1646">
<rect width="221" height="268" fill="white" transform="translate(533)"/>
</clipPath>
</defs>
</svg>
