<svg width="20" height="21" viewBox="0 0 20 21" fill="none" xmlns="http://www.w3.org/2000/svg">
<g clip-path="url(#clip0_1551_3650)">
<path d="M9.85722 10.1341C11.1808 10.1341 12.3268 9.65936 13.2633 8.72278C14.1997 7.78635 14.6744 6.64057 14.6744 5.31688C14.6744 3.99364 14.1997 2.84771 13.2631 1.91097C12.3265 0.974699 11.1806 0.5 9.85722 0.5C8.53352 0.5 7.38775 0.974699 6.45132 1.91113C5.51489 2.84756 5.04004 3.99349 5.04004 5.31688C5.04004 6.64057 5.51489 7.7865 6.45147 8.72293C7.38805 9.6592 8.53398 10.1341 9.85722 10.1341Z" fill="#D8D8DD"/>
<path d="M18.2862 15.879C18.2592 15.4893 18.2046 15.0642 18.1242 14.6152C18.043 14.163 17.9385 13.7354 17.8134 13.3447C17.6841 12.9408 17.5083 12.5419 17.291 12.1597C17.0655 11.7629 16.8006 11.4175 16.5034 11.1332C16.1926 10.8358 15.812 10.5967 15.372 10.4223C14.9334 10.2488 14.4474 10.1609 13.9276 10.1609C13.7234 10.1609 13.526 10.2447 13.1446 10.4929C12.91 10.646 12.6355 10.823 12.3291 11.0188C12.0671 11.1857 11.7121 11.3421 11.2738 11.4837C10.8461 11.6221 10.4118 11.6923 9.98318 11.6923C9.55456 11.6923 9.12045 11.6221 8.69229 11.4837C8.25437 11.3422 7.89945 11.1858 7.63776 11.0189C7.33427 10.825 7.05961 10.648 6.82142 10.4928C6.44056 10.2445 6.24296 10.1608 6.0388 10.1608C5.51878 10.1608 5.03295 10.2488 4.59456 10.4225C4.15481 10.5966 3.7741 10.8357 3.46298 11.1334C3.16589 11.4178 2.90084 11.7631 2.67562 12.1597C2.45849 12.5419 2.28271 12.9406 2.15332 13.3448C2.02835 13.7356 1.92383 14.163 1.84265 14.6152C1.76224 15.0635 1.70761 15.4888 1.6806 15.8794C1.65405 16.2621 1.64062 16.6593 1.64062 17.0605C1.64062 18.1045 1.9725 18.9496 2.62695 19.573C3.27331 20.188 4.12856 20.5001 5.1686 20.5001H14.7987C15.8387 20.5001 16.6937 20.1882 17.3402 19.573C17.9948 18.9501 18.3267 18.1048 18.3267 17.0603C18.3265 16.6573 18.3129 16.2598 18.2862 15.879Z" fill="#D8D8DD"/>
<path d="M8.33317 13.3234C8.33317 12.4029 9.07936 13.7401 9.99984 13.7401C10.9203 13.7401 11.6665 12.4029 11.6665 13.3234C11.6665 14.2439 10.9203 14.9901 9.99984 14.9901C9.07936 14.9901 8.33317 14.2439 8.33317 13.3234Z" fill="white"/>
</g>
<defs>
<clipPath id="clip0_1551_3650">
<rect width="19.9999" height="20" fill="white" transform="translate(0 0.5)"/>
</clipPath>
</defs>
</svg>
