<svg width="48" height="48" viewBox="0 0 48 48" fill="none" xmlns="http://www.w3.org/2000/svg">
<g clip-path="url(#clip0_1136_196)">
<path d="M8.47058 29.647H11.7647V32.4706H8.47058V29.647Z" fill="#D4BCFF"/>
<path d="M47.8788 4.23527C47.4567 2.61297 45.9796 1.41174 44.227 1.41174H12.2435C10.491 1.41174 9.01379 2.61297 8.59167 4.23527H47.8788Z" fill="#D4BCFF"/>
<path d="M8.47058 12.7059V15.5294H35.8547C39.4332 15.5294 42.3447 18.4408 42.3447 22.0194V29.6471H44.227C46.3075 29.6471 48 27.9545 48 25.8741V12.7059H8.47058Z" fill="#D4BCFF"/>
<path d="M39.5211 22.0194C39.5211 19.9977 37.8763 18.3529 35.8547 18.3529H3.77299C1.69252 18.3529 0 20.0454 0 22.1259V42.8152C0 44.8957 1.69252 46.5882 3.77299 46.5882H35.7564C37.8369 46.5882 39.5294 44.8957 39.5294 42.8152V39.9917L39.5211 22.0194ZM11.2941 40.9411H5.64706V38.1176H11.2941V40.9411ZM11.9855 35.2941H8.24979C6.81459 35.2941 5.64706 34.1266 5.64706 32.6914V29.4262C5.64706 27.991 6.81459 26.8235 8.24979 26.8235H11.9855C13.4207 26.8235 14.5882 27.991 14.5882 29.4262V32.6914C14.5882 34.1266 13.4207 35.2941 11.9855 35.2941ZM19.7647 40.9411H14.1176V38.1176H19.7647V40.9411ZM28.2353 40.9411H22.5882V38.1176H28.2353V40.9411ZM33.8823 40.9411H31.0588V38.1176H33.8823V40.9411Z" fill="#8C4BFF"/>
<path d="M8.47058 7.05878H48V9.88231H8.47058V7.05878Z" fill="#D4BCFF"/>
</g>
<defs>
<clipPath id="clip0_1136_196">
<rect width="48" height="48" fill="white"/>
</clipPath>
</defs>
</svg>
