<svg width="20" height="21" viewBox="0 0 20 21" fill="none" xmlns="http://www.w3.org/2000/svg">
<g clip-path="url(#clip0_1514_3633)">
<path d="M13.1646 4.76288H6.46498C6.16835 4.76288 5.91992 5.02741 5.91992 5.32426V20.5H13.7212V5.32426C13.7141 5.01907 13.4697 4.77265 13.1646 4.76288ZM8.02716 17.5373C8.02716 17.7354 7.86656 17.896 7.66848 17.896C7.4704 17.896 7.3098 17.7354 7.3098 17.5373V16.1436C7.3098 15.9455 7.4704 15.7849 7.66848 15.7849C7.86656 15.7849 8.02716 15.9455 8.02716 16.1436V17.5373ZM8.02716 13.182C8.02716 13.38 7.86656 13.5406 7.66848 13.5406C7.4704 13.5406 7.3098 13.38 7.3098 13.182V11.7882C7.3098 11.5901 7.4704 11.4295 7.66848 11.4295C7.86656 11.4295 8.02716 11.5901 8.02716 11.7882V13.182ZM8.02716 8.82655C8.02716 9.02463 7.86656 9.18523 7.66848 9.18523C7.4704 9.18523 7.3098 9.02463 7.3098 8.82655V7.43281C7.3098 7.23473 7.4704 7.07413 7.66848 7.07413C7.86656 7.07413 8.02716 7.23473 8.02716 7.43281V8.82655ZM10.2241 17.5373C10.2241 17.7354 10.0635 17.896 9.8654 17.896C9.66732 17.896 9.50672 17.7354 9.50672 17.5373V16.1436C9.50672 15.9455 9.66732 15.7849 9.8654 15.7849C10.0635 15.7849 10.2241 15.9455 10.2241 16.1436V17.5373ZM10.2241 13.182C10.2241 13.38 10.0635 13.5406 9.8654 13.5406C9.66732 13.5406 9.50672 13.38 9.50672 13.182V11.7882C9.50672 11.5901 9.66732 11.4295 9.8654 11.4295C10.0635 11.4295 10.2241 11.5901 10.2241 11.7882V13.182ZM10.2241 8.82655C10.2241 9.02463 10.0635 9.18523 9.8654 9.18523C9.66732 9.18523 9.50672 9.02463 9.50672 8.82655V7.43281C9.50672 7.23473 9.66732 7.07413 9.8654 7.07413C10.0635 7.07413 10.2241 7.23473 10.2241 7.43281V8.82655ZM12.3762 17.5373C12.3762 17.7354 12.2156 17.896 12.0175 17.896C11.8194 17.896 11.6588 17.7354 11.6588 17.5373V16.1436C11.6588 15.9455 11.8194 15.7849 12.0175 15.7849C12.2156 15.7849 12.3762 15.9455 12.3762 16.1436V17.5373ZM12.3762 13.182C12.3762 13.38 12.2156 13.5406 12.0175 13.5406C11.8194 13.5406 11.6588 13.38 11.6588 13.182V11.7882C11.6588 11.5901 11.8194 11.4295 12.0175 11.4295C12.2156 11.4295 12.3762 11.5901 12.3762 11.7882V13.182ZM12.3762 8.82655C12.3762 9.02463 12.2156 9.18523 12.0175 9.18523C11.8194 9.18523 11.6588 9.02463 11.6588 8.82655V7.43281C11.6588 7.23473 11.8194 7.07413 12.0175 7.07413C12.2156 7.07413 12.3762 7.23473 12.3762 7.43281V8.82655Z" fill="#D8D8DD"/>
<path d="M1.89174 12.071C1.59619 12.0655 1.35215 12.3007 1.34672 12.5963C1.34672 12.5968 1.34672 12.5973 1.34668 12.5978V20.5H5.20248V12.071H1.89174ZM3.93496 18.5273H2.71545C2.51736 18.5273 2.35677 18.3667 2.35677 18.1686C2.35677 17.9705 2.51736 17.8099 2.71545 17.8099H3.93496C4.13304 17.8099 4.29363 17.9705 4.29363 18.1686C4.29363 18.3667 4.13304 18.5273 3.93496 18.5273ZM3.93496 16.3304H2.71545C2.51736 16.3304 2.35677 16.1698 2.35677 15.9717C2.35677 15.7736 2.51736 15.613 2.71545 15.613H3.93496C4.13304 15.613 4.29363 15.7736 4.29363 15.9717C4.29363 16.1698 4.13304 16.3304 3.93496 16.3304ZM3.93496 14.1783H2.71545C2.51736 14.1783 2.35677 14.0177 2.35677 13.8196C2.35677 13.6215 2.51736 13.4609 2.71545 13.4609H3.93496C4.13304 13.4609 4.29363 13.6215 4.29363 13.8196C4.29363 14.0177 4.13304 14.1783 3.93496 14.1783Z" fill="#D8D8DD"/>
<path d="M18.1079 10.8605H16.5874C16.3892 10.8605 16.2319 10.7232 16.2319 10.5251V9.02638C16.2303 8.72796 15.9891 8.48625 15.6907 8.48419H14.4385V13.3264H16.7436C16.9417 13.3264 17.1023 13.487 17.1023 13.6851C17.1023 13.8832 16.9417 14.0437 16.7436 14.0437H14.4385V15.4785H16.7436C16.9417 15.4785 17.1023 15.6391 17.1023 15.8372C17.1023 16.0352 16.9417 16.1958 16.7436 16.1958H14.4385V17.6754H16.7436C16.9417 17.6754 17.1023 17.836 17.1023 18.0341C17.1023 18.2322 16.9417 18.3928 16.7436 18.3928H14.4385V20.5H18.653V11.4218C18.6529 11.125 18.4045 10.8605 18.1079 10.8605Z" fill="#D8D8DD"/>
<path d="M9.99979 0.5C9.80171 0.5 9.64111 0.660599 9.64111 0.858681V4.4042H10.3585V0.858681C10.3585 0.660599 10.1979 0.5 9.99979 0.5Z" fill="#D8D8DD"/>
</g>
<defs>
<clipPath id="clip0_1514_3633">
<rect width="19.9999" height="20" fill="white" transform="translate(0 0.5)"/>
</clipPath>
</defs>
</svg>
