<svg width="21" height="21" viewBox="0 0 21 21" fill="none" xmlns="http://www.w3.org/2000/svg">
<path d="M18.3962 0.446737L0.446736 18.3962C-0.148912 18.9919 -0.148912 19.9576 0.446737 20.5533C1.04239 21.1489 2.00812 21.1489 2.60377 20.5533L20.5533 2.60377C21.1489 2.00812 21.1489 1.04239 20.5533 0.446737C19.9576 -0.148912 18.9919 -0.148913 18.3962 0.446737Z" fill="#8C4BFF"/>
<path d="M20.2066 17.9725L3.02748 0.793401C2.41056 0.176479 1.41033 0.176479 0.793407 0.793401C0.176484 1.41032 0.176484 2.41055 0.793406 3.02747L17.9725 20.2066C18.5895 20.8235 19.5897 20.8235 20.2066 20.2066C20.8235 19.5897 20.8235 18.5894 20.2066 17.9725Z" fill="#8C4BFF"/>
</svg>
