<svg width="48" height="48" viewBox="0 0 48 48" fill="none" xmlns="http://www.w3.org/2000/svg">
<g clip-path="url(#clip0_2261_2833)">
<path d="M23.9994 32C23.5894 32 23.1974 31.832 22.9154 31.536L12.4154 20.536C11.5054 19.584 12.1814 18 13.4994 18H18.9994V6.5C18.9994 5.122 20.1214 4 21.4994 4H26.4994C27.8774 4 28.9994 5.122 28.9994 6.5V18H34.4994C35.8174 18 36.4934 19.584 35.5834 20.536L25.0834 31.536C24.8014 31.832 24.4094 32 23.9994 32Z" fill="white"/>
<path d="M44.5 44H3.5C1.57 44 0 42.43 0 40.5V39.5C0 37.57 1.57 36 3.5 36H44.5C46.43 36 48 37.57 48 39.5V40.5C48 42.43 46.43 44 44.5 44Z" fill="#F9FAFF"/>
</g>
<defs>
<clipPath id="clip0_2261_2833">
<rect width="48" height="48" fill="white"/>
</clipPath>
</defs>
</svg>
