<svg width="48" height="48" viewBox="0 0 48 48" fill="none" xmlns="http://www.w3.org/2000/svg">
<g clip-path="url(#clip0_1784_731)">
<path d="M1.00228 8.92087C7.59009 14.5 19.1497 24.3155 22.5472 27.3759C23.0033 27.789 23.4924 27.999 24.0003 27.999C24.5071 27.999 24.9954 27.791 25.4505 27.3799C28.8509 24.3164 40.4105 14.5 46.9984 8.92087C47.4085 8.57419 47.4711 7.96481 47.139 7.54097C46.3714 6.56156 45.2269 6 44.0003 6H4.00031C2.77378 6 1.62919 6.56156 0.861655 7.54106C0.529593 7.96481 0.592124 8.57419 1.00228 8.92087Z" fill="#D4BCFF"/>
<path d="M47.421 11.9443C47.0665 11.7793 46.6495 11.8369 46.3546 12.0889C42.0401 15.7461 36.3556 20.5781 32.0685 24.2656C31.8429 24.459 31.716 24.7431 31.7208 25.041C31.7257 25.3379 31.8634 25.6181 32.0958 25.8036C36.0793 28.9941 42.0822 33.3828 46.4171 36.5019C46.59 36.6269 46.795 36.6904 47.0011 36.6904C47.1574 36.6904 47.3135 36.6543 47.4572 36.58C47.7912 36.4091 48.0011 36.0653 48.0011 35.6903V12.8515C48.001 12.4619 47.7744 12.1074 47.421 11.9443Z" fill="#8C4BFF"/>
<path d="M1.584 36.502C5.91994 33.3828 11.9239 28.9942 15.9063 25.8037C16.1387 25.6181 16.2764 25.3378 16.2813 25.041C16.2862 24.7432 16.1592 24.459 15.9337 24.2656C11.6465 20.5781 5.96091 15.7461 1.64653 12.0889C1.34962 11.8369 0.931688 11.7813 0.580125 11.9443C0.226594 12.1075 0 12.4619 0 12.8515V35.6905C0 36.0655 0.21 36.4092 0.543938 36.5801C0.687469 36.6544 0.84375 36.6905 1.00003 36.6905C1.20609 36.6905 1.41112 36.627 1.584 36.502Z" fill="#8C4BFF"/>
<path d="M46.7745 39.2227C42.588 36.2275 34.8761 30.6436 30.2726 26.9072C29.8976 26.6016 29.3546 26.6113 28.9855 26.9297C28.0822 27.7177 27.3263 28.3819 26.7901 28.8642C25.1436 30.3505 22.8585 30.3505 21.2081 28.8623C20.6739 28.3808 19.9181 27.7147 19.0147 26.9296C18.6485 26.6092 18.1046 26.5995 17.7285 26.9071C13.1406 30.6308 5.41992 36.2215 1.22658 39.2226C0.99314 39.3906 0.842765 39.6493 0.813515 39.9354C0.785202 40.2216 0.87989 40.5057 1.0762 40.7167C1.83314 41.5322 2.89955 42 4.00017 42H44.0002C45.1008 42 46.1662 41.5322 46.925 40.7168C47.1203 40.5068 47.216 40.2226 47.1877 39.9365C47.1584 39.6504 47.008 39.3907 46.7745 39.2227Z" fill="#8C4BFF"/>
</g>
<defs>
<clipPath id="clip0_1784_731">
<rect width="48" height="48" fill="white"/>
</clipPath>
</defs>
</svg>
