<svg width="20" height="21" viewBox="0 0 20 21" fill="none" xmlns="http://www.w3.org/2000/svg">
<g clip-path="url(#clip0_75_521)">
<path d="M10.0001 20.5C15.5229 20.5 20.0001 16.0229 20.0001 10.5C20.0001 4.97716 15.5229 0.5 10.0001 0.5C4.47719 0.5 3.05176e-05 4.97716 3.05176e-05 10.5C3.05176e-05 16.0229 4.47719 20.5 10.0001 20.5Z" fill="#3C5A9A"/>
<path d="M13.2515 3.56958H11.0363C9.72172 3.56958 8.25953 4.12248 8.25953 6.02805C8.26595 6.69202 8.25953 7.32791 8.25953 8.04356H6.73874V10.4636H8.3066V17.4306H11.1876V10.4177H13.0892L13.2612 8.03677H11.138C11.138 8.03677 11.1427 6.97766 11.138 6.67008C11.138 5.91705 11.9215 5.96017 11.9687 5.96017C12.3415 5.96017 13.0665 5.96126 13.2526 5.96017V3.56958H13.2515Z" fill="white"/>
</g>
<defs>
<clipPath id="clip0_75_521">
<rect width="20" height="20" fill="white" transform="translate(0 0.5)"/>
</clipPath>
</defs>
</svg>
