<svg width="279" height="34" viewBox="0 0 279 34" fill="none" xmlns="http://www.w3.org/2000/svg">
<g opacity="0.5">
<path d="M137.158 6.31445H132.632C131.263 6.31445 130.211 6.7335 129.579 8.09541L120.947 27.6859H127.053C127.053 27.6859 128.105 25.0668 128.316 24.4383C128.947 24.4383 134.947 24.4383 135.789 24.4383C136 25.1716 136.526 27.5811 136.526 27.5811H142L137.158 6.31445ZM130 20.0383C130.526 18.7811 132.316 14.0668 132.316 14.0668C132.316 14.1716 132.842 12.8097 133.053 12.0764L133.474 13.9621C133.474 13.9621 134.632 19.0954 134.842 20.143H130V20.0383Z" fill="white"/>
<path d="M121.368 20.6667C121.368 25.0667 117.368 28 111.158 28C108.526 28 106 27.4762 104.632 26.8476L105.474 22.0286L106.211 22.3429C108.105 23.181 109.368 23.4952 111.684 23.4952C113.368 23.4952 115.158 22.8667 115.158 21.4C115.158 20.4571 114.421 19.8286 112.105 18.781C109.895 17.7333 106.947 16.0571 106.947 13.019C106.947 8.82857 111.053 6 116.842 6C119.053 6 120.947 6.41905 122.105 6.94286L121.263 11.5524L120.842 11.1333C119.789 10.7143 118.421 10.2952 116.421 10.2952C114.211 10.4 113.158 11.3429 113.158 12.181C113.158 13.1238 114.421 13.8571 116.421 14.8C119.789 16.3714 121.368 18.1524 121.368 20.6667Z" fill="white"/>
<path d="M70 6.52403L70.1053 6.10498H79.1579C80.4211 6.10498 81.3684 6.52403 81.6842 7.88593L83.6842 17.3145C81.6842 12.2859 77.0526 8.20022 70 6.52403Z" fill="white"/>
<path d="M96.421 6.31423L87.2631 27.5809H81.0526L75.7894 9.77138C79.5789 12.1809 82.7368 15.9523 83.8947 18.5714L84.5263 20.7714L90.2105 6.20947H96.421V6.31423Z" fill="white"/>
<path d="M98.842 6.20947H104.632L100.947 27.5809H95.1578L98.842 6.20947Z" fill="white"/>
</g>
<g opacity="0.5">
<path d="M272.146 21.1206C272.689 21.3484 272.922 22.1077 272.922 22.4873C272.999 23.0947 272.844 23.3984 272.611 23.3984C272.378 23.3984 272.068 23.1707 271.758 22.6392C271.447 22.1077 271.292 21.5762 271.447 21.2725C271.68 21.1206 271.913 21.0447 272.146 21.1206Z" fill="white"/>
<path d="M268.964 23.4746C269.274 23.4746 269.662 23.6265 270.05 23.9302C270.671 24.4617 270.904 25.0691 270.593 25.5247C270.438 25.7524 270.05 25.9043 269.74 25.9043C269.352 25.9043 268.964 25.7524 268.731 25.5247C268.11 24.9932 267.955 24.2339 268.343 23.7783C268.42 23.6265 268.653 23.4746 268.964 23.4746Z" fill="white"/>
<path d="M261.591 29.4729C253.519 29.4729 247 23.095 247 15.2744C247 7.45385 253.519 1 261.591 1C269.662 1 276.181 7.37793 276.181 15.2744C276.181 17.9319 275.405 20.4375 274.163 22.5635C274.086 22.6394 274.008 22.6394 274.008 22.4875C273.465 18.9949 271.292 17.0967 268.187 16.4893C267.877 16.4133 267.877 16.2615 268.265 16.2615C269.274 16.1855 270.593 16.1855 271.369 16.3374C271.447 15.9578 271.447 15.5781 271.447 15.2744C271.447 10.1113 267.101 5.85937 261.823 5.85937C256.546 5.85937 252.2 10.1113 252.2 15.2744C252.2 20.4375 256.546 24.6894 261.823 24.6894H262.289C262.134 23.8542 262.056 23.019 262.134 22.1079C262.134 21.5005 262.289 21.4246 262.522 21.8801C263.841 24.1579 265.782 26.1321 269.507 26.9673C272.534 27.6506 275.56 28.4099 278.898 32.4341C279.208 32.8137 278.742 33.1933 278.432 32.8896C275.095 30.0044 272.068 29.0173 269.274 29.0173C265.782 29.0933 263.686 29.4729 261.591 29.4729Z" fill="white"/>
</g>
<g opacity="0.5">
<path fill-rule="evenodd" clip-rule="evenodd" d="M199.891 14.3845C199.85 14.0893 199.806 13.7983 199.762 13.5128H189.399L189.414 13.4256H189.252C189.314 13.0318 189.413 12.6699 189.522 12.2668C189.572 12.0828 189.625 11.8902 189.677 11.6821H199.06C198.885 11.0718 198.622 10.4615 198.358 9.85128H190.387C190.683 9.21931 191.016 8.60806 191.384 8.02051H197.394C197.043 7.41026 196.605 6.8 196.078 6.18974H192.746C193.272 5.57949 193.798 5.05641 194.5 4.44615L194.435 4.38608C197.451 1.6647 201.442 0 205.812 0C215.371 0 223 7.67179 223 17C223 26.3282 215.371 34 205.9 34C201.538 34 197.535 32.3417 194.501 29.6295C194.516 29.6171 194.53 29.6046 194.544 29.5921C194.559 29.5794 194.573 29.5666 194.588 29.5538C195.163 29.0637 195.661 28.4971 196.227 27.8538L196.342 27.7231H192.834C192.395 27.2 191.957 26.5897 191.606 25.9795H197.569C197.92 25.4564 198.271 24.8462 198.534 24.1487H190.554C190.291 23.6256 190.028 23.0154 189.852 22.3179H199.235C199.487 21.5681 199.698 20.7784 199.85 19.9489C200.349 20.9474 201.277 21.5333 202.655 21.5333C203.445 21.6205 204.409 21.3589 204.409 21.3589L204.76 19.3538C204.76 19.3538 203.883 19.7897 203.182 19.7897C201.954 19.7897 201.34 18.8307 201.34 17.6974C201.34 15.5179 202.392 14.3846 203.708 14.3846C204.585 14.3846 205.374 14.9076 205.374 14.9076L205.637 12.9897C205.637 12.9897 204.585 12.5538 203.532 12.5538C202.104 12.5538 200.717 13.3967 199.972 15.0008C199.95 14.822 199.927 14.6443 199.903 14.4679C199.915 14.4397 199.926 14.4119 199.937 14.3845H199.891ZM199.891 14.3845H199.586C198.797 14.3845 198.095 15.4307 198.095 15.4307L198.271 14.4717H196.517L195.377 21.4461H197.394C197.486 20.9264 197.565 20.4228 197.639 19.948C197.989 17.7145 198.238 16.1173 199.323 16.4768C199.476 15.4911 199.695 14.967 199.864 14.5604L199.864 14.5602L199.865 14.5584L199.865 14.558C199.878 14.5274 199.891 14.4974 199.903 14.4679C199.899 14.4401 199.895 14.4123 199.891 14.3845ZM199.972 15.0008C199.619 15.7608 199.411 16.6916 199.411 17.7846C199.411 18.626 199.556 19.3594 199.85 19.9489C200.017 19.0425 200.112 18.0886 200.112 17.0872C200.112 16.3862 200.054 15.6853 199.972 15.0008ZM189.241 20.8205L189.151 21.359C188.975 21.4461 188.537 21.6205 188.011 21.6205C187.134 21.6205 186.52 21.0974 186.52 20.0513C186.52 19.3538 187.572 13.4256 187.572 13.4256H189.181C188.95 14.493 188.82 15.5964 188.802 16.7252L188.362 19.3538C188.274 19.5282 188.362 19.8769 188.975 19.8769C189 19.8769 189.024 19.8753 189.048 19.8724C189.103 20.1915 189.168 20.5076 189.241 20.8205ZM189.241 20.8205C190.05 24.2692 191.927 27.3286 194.501 29.6295C191.444 32.2889 187.53 34 183.1 34C173.629 34 166 26.3282 166 17C166 7.67179 173.717 0.261538 183.012 0C187.452 0 191.46 1.63265 194.435 4.38608C193.258 5.44855 192.229 6.67209 191.384 8.02051H191.343C191.197 8.31164 191.05 8.57239 190.91 8.82177L190.91 8.8218C190.715 9.16985 190.532 9.49577 190.378 9.85128H190.387C189.858 10.9821 189.451 12.1793 189.181 13.4256H189.252C189.247 13.4545 189.243 13.4836 189.238 13.5128H189.399L189.239 14.4718H190.115L189.852 16.2154H188.888L188.802 16.7252C188.801 16.8166 188.8 16.9082 188.8 17C188.8 17.978 188.885 18.9378 189.048 19.8724C189.125 19.8631 189.201 19.8412 189.266 19.8222C189.326 19.8047 189.378 19.7897 189.414 19.7897L189.241 20.8205ZM192.922 21.6203C191.518 21.6203 189.765 21.01 189.765 18.4818C189.765 16.2152 191.168 14.21 192.922 14.2972C194.938 14.2972 195.552 15.7793 195.552 16.9126C195.552 17.4357 195.289 18.569 195.289 18.569H191.606C191.606 18.569 191.255 20.0511 193.272 20.0511C194.237 20.0511 195.202 19.6152 195.202 19.6152L194.851 21.3588C194.851 21.3588 194.237 21.6203 192.922 21.6203ZM193.713 17.0477C193.731 16.8276 193.81 15.8665 192.922 15.8665C192.145 15.8665 191.88 16.6017 191.76 16.9333C191.731 17.0135 191.711 17.07 191.694 17.087H193.711C193.711 17.0801 193.712 17.0666 193.713 17.0477ZM177.049 14.5588C177.049 14.5588 178.014 14.2101 179.242 14.2101C179.855 14.2101 181.609 14.2972 181.609 16.4767L180.908 21.446H179.417L179.505 20.7485C179.486 20.7485 179.444 20.7834 179.378 20.8385C179.131 21.0446 178.544 21.5331 177.575 21.5331C176.874 21.5331 175.822 21.1844 175.822 19.528C175.822 17.4357 177.488 16.8255 179.066 16.8255H179.855C179.855 16.8255 179.943 16.7383 179.943 16.3896C179.943 15.8665 179.417 15.7793 178.803 15.7793C177.575 15.7793 176.786 16.128 176.786 16.128L177.049 14.5588ZM178.365 19.9639C179.417 19.9639 179.592 18.4819 179.592 18.2203H179.329C177.926 18.2203 177.663 18.8306 177.663 19.2665C177.663 19.528 177.839 19.9639 178.365 19.9639ZM183.363 21.5332L183.407 21.5333C183.936 21.5361 186.082 21.5475 186.082 19.1793C186.082 17.7803 185.246 17.4108 184.607 17.128C184.21 16.9526 183.889 16.8105 183.889 16.4768C183.889 16.0409 184.24 15.8665 184.854 15.8665C185.117 15.8665 186.082 15.9537 186.082 15.9537L186.345 14.2973C186.345 14.2973 185.731 14.1229 184.591 14.1229C183.275 14.1229 181.872 14.646 181.872 16.4768C181.872 17.7744 182.749 18.2002 183.416 18.5236C183.823 18.7217 184.152 18.8813 184.152 19.1793C184.152 19.7024 183.538 19.7896 183.1 19.7896C182.311 19.7896 181.434 19.528 181.434 19.528L181.171 21.1845C181.346 21.3588 181.872 21.5332 183.363 21.5332ZM219.142 15.2563L219.492 12.8152L221.422 12.9896L220.106 21.6204H218.265L218.352 21.0101C218.352 21.0101 217.651 21.7076 216.599 21.7076C215.02 21.7076 214.319 20.2255 214.319 18.7434C214.319 16.3896 215.722 14.3845 217.388 14.3845C218.44 14.3845 219.142 15.2563 219.142 15.2563ZM217.125 19.7896C218.177 19.7896 218.615 18.4819 218.615 17.5229C218.615 16.4768 218.265 16.0409 217.651 15.9537C216.774 15.9537 216.16 16.8255 216.16 18.3076C216.16 19.2665 216.511 19.7896 217.125 19.7896ZM169.332 21.446L170.385 14.9947L170.56 21.446H171.788L174.155 14.9947L173.191 21.446H175.12L176.611 12.8152H173.629L171.788 18.1332L171.7 12.8152H169.069L167.579 21.446H169.332ZM208.619 14.2101C207.391 14.2101 206.426 14.5588 206.426 14.5588L206.163 16.128C206.163 16.128 206.952 15.7793 208.18 15.7793C208.794 15.7793 209.32 15.8665 209.32 16.3896C209.32 16.7383 209.232 16.8255 209.232 16.8255H208.443C206.865 16.8255 205.199 17.4357 205.199 19.528C205.199 21.1844 206.251 21.5331 206.952 21.5331C207.921 21.5331 208.508 21.0446 208.755 20.8385C208.821 20.7834 208.863 20.7485 208.882 20.7485L208.794 21.446H210.46L211.162 16.4767C211.162 14.2972 209.232 14.2101 208.619 14.2101ZM209.057 18.2203C209.057 18.4819 208.882 19.9639 207.829 19.9639C207.303 19.9639 207.128 19.528 207.128 19.2665C207.128 18.8306 207.391 18.2203 208.794 18.2203H209.057ZM212.81 19.9479L212.81 19.948C212.736 20.4228 212.657 20.9263 212.565 21.4459H210.548L211.688 14.4716H213.442L213.266 15.4305C213.266 15.4305 213.968 14.3844 214.757 14.3844H215.108C215.085 14.4411 215.061 14.4992 215.035 14.56L215.035 14.5602C214.865 14.9668 214.646 15.4909 214.494 16.4767C213.409 16.1172 213.159 17.7143 212.81 19.9479Z" fill="white"/>
</g>
<g opacity="0.5">
<path d="M29.3189 1C20.3288 1 13.1786 8.1896 13.1786 17C13.1786 25.912 20.4313 33 29.3189 33C38.2058 33 45.4593 25.8104 45.4593 17C45.4593 8.1896 38.2058 1 29.3189 1ZM29.3189 22.8736C26.0497 22.8736 23.2905 20.1392 23.2905 16.8984C23.2905 13.6584 26.0497 10.924 29.3189 10.924C32.5874 10.924 35.3458 13.6584 35.3458 16.8984C35.2433 20.2408 32.5874 22.8736 29.3181 22.8736H29.3189ZM13.0761 5.5568V28.848H7.35435L0 5.5568H13.0761Z" fill="white"/>
</g>
</svg>
