<svg width="1646" height="194" viewBox="0 0 1646 194" fill="none" xmlns="http://www.w3.org/2000/svg">
<g clip-path="url(#clip0_90_1588)">
<path d="M1411 71H0V123H1411V71Z" fill="#8C4BFF"/>
<path d="M1499.56 194H1489.63C1436.17 194 1392.83 150.571 1392.83 97C1392.83 43.4286 1436.17 0 1489.63 0H1499.56V194Z" fill="#8C4BFF"/>
<path d="M1626.14 52.2308H1534.31C1523.38 52.2308 1514.45 43.2769 1514.45 32.3333C1514.45 21.3898 1523.38 12.4359 1534.31 12.4359H1626.14C1637.06 12.4359 1646 21.3898 1646 32.3333C1646 43.2769 1637.06 52.2308 1626.14 52.2308Z" fill="#8C4BFF"/>
<path d="M1626.14 176.59H1534.31C1523.38 176.59 1514.45 167.636 1514.45 156.692C1514.45 145.749 1523.38 136.795 1534.31 136.795H1626.14C1637.06 136.795 1646 145.749 1646 156.692C1646 167.636 1637.06 176.59 1626.14 176.59Z" fill="#8C4BFF"/>
<path d="M864.793 64.806L833.114 87.5761L851.221 96.4479L827.011 105.658L851.221 113.694L817.539 128.09H1102.09L1088.41 115.701L1102.09 103.648L1088.41 96.4479L1102.09 83.5593L1072.83 75.5232L1102.09 64.806H864.793Z" fill="#F9FAFF"/>
<path d="M860.071 52.2308L842.223 32.3333L851.22 21.6957L860.071 52.2308Z" fill="#EF8A2B"/>
<path d="M920.699 81.388L938.622 21.6957L964.366 36.962L920.699 81.388Z" fill="#EF8A2B"/>
<path d="M900.852 116.208L931.021 164.293L915.938 176.59L900.852 116.208Z" fill="#EF8A2B"/>
<path d="M1048.33 73.143L996.672 42.2423L1011.88 23.3522L1048.33 73.143Z" fill="#EF8A2B"/>
<path d="M984.535 178.97L1033.96 124.563L1007.76 183.293L984.535 178.97Z" fill="#EF8A2B"/>
<path d="M1026.03 95.5972L1009.58 123.113L1000.77 108.063L1026.03 95.5972Z" fill="#EF8A2B"/>
<path d="M961.536 145.405L935.934 116.701L970.953 129.201L961.536 145.405Z" fill="#EF8A2B"/>
<path d="M1072.82 116.208L1065.2 146.398H1080.5L1072.82 116.208Z" fill="#EF8A2B"/>
<path d="M860.07 123.115L885.172 156.692L860.07 158.558V123.115Z" fill="#EF8A2B"/>
<path d="M875.85 76.7021L893.22 81.388L875.85 86.0738L871.176 103.477L866.5 86.0738L849.133 81.388L866.5 76.7021L871.176 59.2993L875.85 76.7021Z" fill="#EF8A2B"/>
<path d="M1080.66 170.073L1093.03 173.411L1080.66 176.746L1077.33 189.14L1074 176.746L1061.63 173.411L1074 170.073L1077.33 157.68L1080.66 170.073Z" fill="#EF8A2B"/>
<path d="M989.52 61.4682L1001.89 64.8059L989.52 68.1437L986.189 80.5349L982.86 68.1437L970.492 64.8059L982.86 61.4682L986.189 49.077L989.52 61.4682Z" fill="#EF8A2B"/>
</g>
<defs>
<clipPath id="clip0_90_1588">
<rect width="1646" height="194" fill="white"/>
</clipPath>
</defs>
</svg>
