<svg width="28" height="28" viewBox="0 0 28 28" fill="none" xmlns="http://www.w3.org/2000/svg">
<g clip-path="url(#clip0_1600_298)">
<path d="M26.4444 20.2222H1.55557C0.696451 20.2222 0 20.9186 0 21.7778C0 22.6369 0.696451 23.3333 1.55557 23.3333H26.4444C27.3035 23.3333 28 22.6369 28 21.7778C28 20.9186 27.3035 20.2222 26.4444 20.2222Z" fill="#8C4BFF"/>
<path d="M26.4446 12.4445H7.38906C6.52995 12.4445 5.8335 13.1409 5.8335 14C5.8335 14.8592 6.52994 15.5556 7.38906 15.5556H26.4446C27.3037 15.5556 28.0002 14.8592 28.0002 14C28.0002 13.1409 27.3037 12.4445 26.4446 12.4445Z" fill="#8C4BFF"/>
<path d="M26.4444 4.66667H1.55556C0.69645 4.66667 0 5.36312 0 6.22224C0 7.08135 0.69645 7.7778 1.55556 7.7778H26.4444C27.3035 7.7778 28 7.08135 28 6.22224C28 5.36312 27.3035 4.66667 26.4444 4.66667Z" fill="#8C4BFF"/>
</g>
<defs>
<clipPath id="clip0_1600_298">
<rect width="28" height="28" fill="white"/>
</clipPath>
</defs>
</svg>
