<svg width="73" height="50" viewBox="0 0 73 50" fill="none" xmlns="http://www.w3.org/2000/svg">
<path d="M55.6443 12.056C55.0237 12.056 54.3898 12.092 53.7597 12.1621C51.5619 9.90976 48.7493 8.34232 45.6747 7.59814C44.6574 3.25173 40.558 0 35.6519 0C35.6367 0 35.6215 0 35.6045 0V3.88086C35.6215 3.88086 35.6367 3.87906 35.6519 3.87906C39.0548 3.87906 41.8125 6.48727 41.8125 9.70125C41.8125 12.917 39.0548 15.5234 35.6519 15.5234C35.6367 15.5234 35.6215 15.5216 35.6045 15.5216V19.4043C35.6215 19.4043 35.6367 19.4061 35.6519 19.4061C40.0531 19.4061 43.8053 16.7889 45.2647 13.113C47.2518 13.7906 49.0036 15.0129 50.315 16.6882L51.4234 18.1101L53.2454 17.7182C54.0615 17.5439 54.8681 17.454 55.6443 17.454C61.5942 17.454 66.4319 22.0287 66.4319 27.6531C66.4319 33.274 61.5923 37.8487 55.6443 37.8487H45.5874C44.4411 33.6767 40.427 30.5939 35.6519 30.5939C35.6348 30.5939 35.6197 30.5957 35.6026 30.5957V34.4766C35.6197 34.4766 35.6348 34.4748 35.6519 34.4748C39.0529 34.4748 41.8106 37.0812 41.8106 40.297C41.8106 43.5109 39.0529 46.1173 35.6519 46.1173C35.6348 46.1173 35.6197 46.1155 35.6026 46.1155V49.9982C35.6197 49.9982 35.6348 50 35.6519 50C40.2315 50 44.1089 47.1653 45.4318 43.2503H55.6443C64.7447 43.2503 72.1484 36.2525 72.1484 27.6531C72.1484 19.052 64.7447 12.056 55.6443 12.056Z" fill="#8C4BFF"/>
<path d="M29.5255 40.297C29.5255 37.0974 32.2585 34.5017 35.6386 34.4784V30.5975C30.8825 30.6173 26.8894 33.6946 25.7468 37.8559H14.1962C9.51983 37.8559 5.71645 34.2609 5.71645 29.8425C5.71645 25.4224 9.51983 21.8274 14.1962 21.8274C14.3405 21.8274 14.4999 21.8382 14.7409 21.8543L17.1361 22.0161L17.7795 19.9202C18.903 16.2604 22.0991 13.5282 25.9347 12.7391C27.2784 16.5966 31.1103 19.3845 35.6386 19.4043V15.5234C32.2585 15.4983 29.5255 12.9026 29.5255 9.70305C29.5255 6.50345 32.2585 3.90603 35.6386 3.88086V0C30.8711 0.0215703 26.8723 3.11152 25.7411 7.28717C20.1936 8.09246 15.3369 11.5581 13.0423 16.4725C9.6375 16.7314 6.47371 18.1317 4.0577 20.463C1.4405 22.985 0 26.3158 0 29.8407C0 37.2376 6.36933 43.2557 14.1962 43.2557H25.9062C27.2253 47.1545 31.0799 49.982 35.6386 50V46.1191C32.2585 46.094 29.5255 43.4983 29.5255 40.297Z" fill="#D4BCFF"/>
</svg>
