<svg width="65" height="32" viewBox="0 0 65 32" fill="none" xmlns="http://www.w3.org/2000/svg">
<path fill-rule="evenodd" clip-rule="evenodd" d="M46.0139 1.47255C46.0139 2.81054 45.9054 2.91809 44.8302 2.64566C42.3149 2.00888 40.3063 6.00248 41.9801 8.31269C42.4731 8.99306 43.2502 9.23753 45.0321 9.27259L47.4224 9.31997V4.65975C47.4224 0.8334 47.2966 0 46.7181 0C46.243 0 46.0139 0.479479 46.0139 1.47255ZM52.2182 4.59626L52.3525 9.193L54.4306 9.33229C57.1947 9.51802 58.2216 8.58133 58.2216 5.87598C58.2216 3.52833 56.9248 2.20361 55.0833 2.66982C54.1212 2.91382 53.9958 2.77595 53.9958 1.47255C53.9958 0.307018 53.7963 0 53.0399 0C52.1346 0 52.091 0.244003 52.2182 4.59626ZM3.12049 2.69493C2.96085 2.85555 2.19364 2.96926 1.41516 2.94652L0 2.90624V7.37553C0 11.0323 0.128181 11.8448 0.704294 11.8448C1.17241 11.8448 1.40859 11.3724 1.40859 10.4353C1.40859 9.15178 1.52409 9.04849 2.69979 9.28018C3.42287 9.42279 4.35723 9.26027 4.82347 8.91156C5.92076 8.09001 6.42269 4.98572 5.61651 4.00544C4.81127 3.02611 3.48297 2.32869 3.12049 2.69493ZM8.9342 2.92662C7.45096 3.48522 7.0589 4.13289 7.04998 6.04085C7.03589 9.08071 10.7996 10.7513 12.4158 8.42261C13.1839 7.3163 13.3797 4.89333 12.7778 3.93864C12.1725 2.97779 10.1874 2.45519 8.9342 2.92662ZM25.5025 2.84607C21.9613 4.28593 23.2915 9.71132 27.1059 9.38441C29.4301 9.18542 29.655 8.15634 27.4153 7.96635C24.9174 7.75456 24.7306 6.6331 27.1937 6.6331C29.0028 6.6331 29.1108 6.55445 29.1108 5.23872C29.1108 4.33473 28.7436 3.58471 28.067 3.10666C26.8899 2.27468 26.905 2.2761 25.5025 2.84607ZM36.7712 2.84607C33.23 4.28593 34.5602 9.71132 38.3746 9.38441C40.6988 9.18542 40.9237 8.15634 38.684 7.96635C36.1861 7.75456 35.9993 6.6331 38.4624 6.6331C40.2715 6.6331 40.3795 6.55445 40.3795 5.23872C40.3795 4.33473 40.0123 3.58471 39.3357 3.10666C38.1586 2.27468 38.1737 2.2761 36.7712 2.84607ZM13.644 3.1981C13.7365 4.37311 15.8269 9.19963 16.3133 9.36025C16.6345 9.46637 17.1162 8.94899 17.3838 8.2113C18.3919 5.43108 18.421 5.40929 18.8779 7.10689C19.4709 9.30955 20.0334 9.84636 20.8419 8.98169C21.6162 8.15397 23.213 3.3663 22.8402 2.99058C22.1641 2.30832 21.188 3.44542 20.8598 5.297L20.4973 7.34378L19.847 5.09327C19.3728 3.45395 18.9596 2.84276 18.3257 2.84276C17.6759 2.84276 17.3745 3.32366 17.1373 4.73982C16.7683 6.94485 16.1316 6.83209 15.6949 4.48445C15.4747 3.29949 15.1433 2.84276 14.5033 2.84276C14.0154 2.84276 13.629 3.00242 13.644 3.1981ZM30.5194 6.25454C30.5194 10.1766 31.5491 10.5997 31.928 6.83304C32.1266 4.86206 32.3261 4.47781 33.2192 4.34942C35.1306 4.07556 34.4508 2.89961 32.3975 2.92851L30.5194 2.95457V6.25454ZM59.9889 6.23464L61.2299 9.62652L60.1955 10.3197C58.847 11.2232 58.8799 11.8448 60.2772 11.8448C61.5468 11.8448 62.1037 11.2687 62.7962 9.23895C63.0629 8.4572 63.7245 6.69848 64.2659 5.33017C65.2317 2.89061 65.2331 2.84276 64.3377 2.84276C63.6785 2.84276 63.2672 3.37103 62.8615 4.73793C62.5521 5.78027 62.1544 6.6331 61.9778 6.6331C61.8013 6.6331 61.4036 5.78027 61.0942 4.73793C60.6946 3.39141 60.2735 2.84276 59.6396 2.84276C58.7963 2.84276 58.8151 3.02611 59.9889 6.23464ZM3.6736 4.20254C4.04781 4.4418 4.23468 5.24157 4.14313 6.20905C4.01447 7.56789 3.80882 7.81758 2.81717 7.81758C1.82553 7.81758 1.61987 7.56789 1.49122 6.20905C1.35835 4.8052 1.91004 3.80503 2.81717 3.80503C2.9463 3.80503 3.33178 3.98365 3.6736 4.20254ZM11.433 5.32116C11.7481 6.53644 11.0048 8.05447 10.0949 8.05447C9.18352 8.05447 8.3825 6.42605 8.77127 5.36428C9.42345 3.58329 10.9762 3.55771 11.433 5.32116ZM27.7022 4.78862C27.7022 5.02125 27.174 5.21172 26.5284 5.21172C25.3081 5.21172 24.9179 4.49676 25.9415 4.13668C26.6965 3.87088 27.7022 4.24329 27.7022 4.78862ZM38.9709 4.78862C38.9709 5.02125 38.4427 5.21172 37.7971 5.21172C36.5768 5.21172 36.1866 4.49676 37.2102 4.13668C37.9652 3.87088 38.9709 4.24329 38.9709 4.78862ZM45.4617 4.20254C45.8359 4.4418 46.0228 5.24157 45.9312 6.20905C45.8026 7.56789 45.5969 7.81758 44.6053 7.81758C43.6136 7.81758 43.408 7.56789 43.2793 6.20905C43.1464 4.8052 43.6981 3.80503 44.6053 3.80503C44.7344 3.80503 45.1199 3.98365 45.4617 4.20254ZM56.4966 4.81136C56.7468 5.21124 56.8069 6.11856 56.6308 6.82735C56.3853 7.81521 56.0679 8.08101 55.2706 7.96682C54.4682 7.85169 54.1959 7.45039 54.0785 6.20905C53.8648 3.95001 55.4026 3.06117 56.4966 4.81136ZM10.1456 13.8959C6.32127 15.0604 6.68422 17.6791 10.5198 16.5951C14.4352 15.4892 16.903 16.7893 16.903 19.9576C16.903 20.7848 16.6256 20.9075 14.9075 20.8388C10.4029 20.6588 9.81175 20.8009 8.16981 22.4578C6.24286 24.4022 5.97992 27.0644 7.51998 29.0402C9.40702 31.4612 13.6577 31.718 16.0274 29.5542C16.8744 28.7805 16.9678 28.7928 17.8942 29.7963C18.7802 30.7558 18.9629 30.7894 19.8817 30.1607C20.4719 29.757 20.8213 29.1032 20.7198 28.5924C20.6241 28.1111 20.4071 25.265 20.2386 22.2682C19.8916 16.107 19.4563 15.0628 16.7852 13.9845C14.708 13.1458 12.6951 13.1188 10.1456 13.8959ZM48.5869 14.1522C45.4166 15.6058 44.5851 19.0038 46.8421 21.2818C47.5563 22.0025 49.2992 22.9737 50.7157 23.4404C52.1328 23.9071 53.5559 24.4998 53.8785 24.758C54.8311 25.5194 54.5522 26.9266 53.2822 27.7666C52.1135 28.5394 50.3659 28.5133 46.7984 27.6695C45.5561 27.3757 45.48 27.4425 45.6246 28.7071C45.7584 29.8788 46.0852 30.146 48.0695 30.7093C51.3998 31.655 54.2536 31.105 56.1979 29.143C59.2893 26.0235 57.9479 22.7245 52.8277 20.8549C51.2815 20.2902 49.7494 19.6051 49.4236 19.3322C48.5099 18.5665 48.7207 17.1494 49.8386 16.5458C50.7359 16.0611 51.5529 16.08 55.6392 16.6813C56.3642 16.7884 56.5783 16.55 56.5783 15.6352C56.5783 13.4567 51.9698 12.6015 48.5869 14.1522ZM21.8509 14.1849C21.4711 14.8051 26.1612 29.9423 26.8805 30.4175C27.2036 30.6307 27.9957 30.7501 28.6413 30.6823C29.7339 30.5681 29.9123 30.1593 31.2237 24.7618C31.9984 21.5732 32.7501 18.9612 32.8943 18.9579C33.0384 18.9545 33.7671 21.5168 34.5137 24.6519C35.7373 29.7892 35.9852 30.381 37.0242 30.644C37.6586 30.8046 38.4845 30.7406 38.8596 30.5018C39.5334 30.0726 44.1109 16.2023 44.1273 14.5393C44.1339 13.8542 43.8268 13.7101 42.6116 13.8286L41.088 13.9769L39.3958 20.3731L37.7041 26.7693L36.3984 21.0838C34.7945 14.1005 34.6198 13.74 32.8389 13.74C31.1697 13.74 31.0964 13.9015 29.5658 20.9696C28.9587 23.7735 28.3201 25.9056 28.1469 25.7075C27.9736 25.5099 27.4773 23.8555 27.0449 22.0314C25.1879 14.2048 24.9883 13.74 23.491 13.74C22.7388 13.74 22.0007 13.9399 21.8509 14.1849ZM16.903 24.4368C16.903 26.9574 12.9534 29.377 10.9799 28.0651C9.97233 27.3952 9.75447 25.5815 10.5362 24.3771C11.1973 23.3589 11.6363 23.2158 14.0967 23.2158C16.7993 23.2158 16.903 23.2608 16.903 24.4368Z" fill="white"/>
</svg>
