<svg width="48" height="48" viewBox="0 0 48 48" fill="none" xmlns="http://www.w3.org/2000/svg">
<g clip-path="url(#clip0_108_2641)">
<path d="M48 8.15518V17.6909C48 20.0802 42.1226 22.7425 33.6873 22.7425C25.2521 22.7425 19.3747 20.0802 19.3747 17.6909V8.15518C21.9485 10.3525 27.2533 11.7975 33.6873 11.7975C40.1214 11.7975 45.4261 10.3525 48 8.15518Z" fill="#ffffff"/>
<path d="M48 20.784V29.4778C48 31.8671 42.1226 34.5294 33.6873 34.5294C25.2521 34.5294 19.3747 31.8671 19.3747 29.4778V20.784C21.9485 22.9813 27.2533 24.4263 33.6873 24.4263C40.1214 24.4263 45.4261 22.9813 48 20.784Z" fill="#ffffff"/>
<path d="M48 32.5709V42.1067C48 44.4959 42.1226 47.1582 33.6873 47.1582C25.2521 47.1582 19.3747 44.4959 19.3747 42.1067V32.5709C21.9485 34.7682 27.2533 36.2132 33.6873 36.2132C40.1214 36.2132 45.4261 34.7682 48 32.5709Z" fill="#ffffff"/>
<path d="M19.3747 5.0621C19.3747 2.27201 25.7828 0.0105743 33.6873 0.0105743C41.5919 0.0105743 48 2.27201 48 5.0621C48 7.85179 41.5919 10.1136 33.6873 10.1136C25.7828 10.1136 19.3747 7.85179 19.3747 5.0621Z" fill="#ffffff"/>
<path d="M10.9555 11.7975V4.22018C10.9555 3.75523 10.5786 3.37826 10.1136 3.37826H4.90712C4.49726 4.53795 3.31125 5.23353 2.09893 5.02551C0.886206 4.8175 0.000297546 3.76633 0.000297546 2.53633C0.000297546 1.30593 0.886206 0.25476 2.09893 0.0467462C3.31125 -0.161268 4.49726 0.534715 4.90712 1.69441H10.1136C11.5085 1.69441 12.6394 2.82492 12.6394 4.22018V11.7975C12.6394 12.2624 13.0164 12.6394 13.4813 12.6394H17.6909V14.3232H13.4813C12.0865 14.3232 10.9555 13.1923 10.9555 11.7975ZM3.37826 1.69441H1.69442V3.37826H3.37826V1.69441Z" fill="#ffffff"/>
<path d="M2.53634 21.0586C3.60354 21.0603 4.55399 21.7353 4.90712 22.7425H17.6909V24.4263H4.90712C4.47712 25.6341 3.20889 26.3268 1.95999 26.0357C0.711493 25.7451 -0.120562 24.5636 0.0270214 23.29C0.174604 22.0165 1.25414 21.0561 2.53634 21.0586ZM1.69442 24.4263H3.37826V22.7425H1.69442V24.4263Z" fill="#ffffff"/>
<path d="M2.53634 42.9486C3.60354 42.9502 4.55399 43.6252 4.90712 44.6324H10.1136C10.5786 44.6324 10.9556 44.2555 10.9556 43.7905V38.739C10.9556 37.3437 12.0865 36.2132 13.4813 36.2132H17.6909V37.8971H13.4813C13.0164 37.8971 12.6394 38.274 12.6394 38.739V43.7905C12.6394 45.1853 11.5085 46.3163 10.1136 46.3163H4.90712C4.47712 47.5241 3.20889 48.2168 1.95999 47.9257C0.711493 47.6351 -0.120562 46.4536 0.0270214 45.18C0.174604 43.9064 1.25414 42.9461 2.53634 42.9486ZM1.69442 46.3163H3.37826V44.6324H1.69442V46.3163Z" fill="#ffffff"/>
</g>
<defs>
<clipPath id="clip0_108_2641">
<rect width="48" height="48" fill="white" transform="matrix(-1 0 0 1 48 0)"/>
</clipPath>
</defs>
</svg>
