<svg width="51" height="20" viewBox="0 0 51 20" fill="none" xmlns="http://www.w3.org/2000/svg">
<g clip-path="url(#clip0_75_519)">
<path d="M8.28981 -7.62939e-06H5.61343C2.93694 -7.62939e-06 0.634024 1.99054 0.634024 5.84716C0.634024 8.14875 1.75432 9.89044 3.68387 10.7613L0.0737765 17.2305C-0.0506787 17.4172 0.0737765 17.6038 0.260559 17.6038H1.9411C2.06556 17.6038 2.19001 17.5416 2.25224 17.4172L5.5512 11.0723H6.73372V17.4172C6.73372 17.4794 6.79605 17.6038 6.92051 17.6038H8.41437C8.53882 17.6038 8.60105 17.5416 8.60105 17.4172V0.248749C8.53882 0.0621814 8.4766 -7.62939e-06 8.28981 -7.62939e-06ZM6.73372 9.5795H5.73788C1.44318 9.5795 1.75432 1.49293 5.5512 1.49293H6.79605V9.5795H6.73372Z" fill="#FF0000"/>
<path d="M17.2528 5.84711H15.7591C15.6346 5.84711 15.5723 5.9093 15.5723 6.03377V10.5124H12.8336V6.03377C12.8336 5.9094 12.7713 5.84711 12.6469 5.84711H11.2152C11.0908 5.84711 11.0286 5.9093 11.0286 6.03377V17.4172C11.0286 17.5415 11.0908 17.6037 11.2152 17.6037H12.7091C12.8336 17.6037 12.8959 17.5415 12.8959 17.4172V11.9431H15.6345V17.4172C15.6345 17.5415 15.6967 17.6037 15.8213 17.6037H17.3151C17.4395 17.6037 17.5018 17.5415 17.5018 17.4172V6.03377C17.4396 5.9094 17.3774 5.84711 17.2529 5.84711H17.2528ZM50.8641 16.0487C50.8641 15.9865 50.8018 15.9865 50.7396 15.9865C50.1171 15.9865 46.3204 17.7905 46.3204 11.8188C46.3204 9.20631 47.3162 5.53626 49.6814 7.71338C49.7437 7.77557 49.8059 7.77557 49.8681 7.77557C49.9304 7.77557 49.9926 7.71338 50.0549 7.589L50.6773 6.53149C50.7395 6.4693 50.7395 6.40711 50.7395 6.34492C50.7395 6.22054 50.6151 6.15825 50.4906 6.09606C46.3826 4.04333 44.2663 7.83775 44.2663 12.2543C44.2663 17.9771 48.4366 18.7857 50.8017 17.044C50.9262 16.9818 50.9262 16.8574 50.9262 16.7953L50.8641 16.0487ZM40.6562 11.1346L43.5194 5.97168C43.5816 5.9094 43.5194 5.78502 43.4572 5.78502H42.0255C41.5898 5.78502 41.4654 5.9094 41.3408 6.22044C41.2164 6.53149 39.1001 10.948 38.8511 11.1346V5.97159C38.8511 5.9093 38.7889 5.78492 38.7267 5.78492H37.1706C37.1084 5.78492 37.0461 5.84711 37.0461 5.97159V17.4172C37.0461 17.4793 37.1084 17.6037 37.1706 17.6037H38.7267C38.8511 17.6037 38.8511 17.5415 38.8511 17.4172V11.5077C39.0379 11.6321 41.6521 17.0439 41.7143 17.2305C41.8388 17.4792 42.0878 17.6037 42.399 17.6037H43.9551C44.0796 17.6037 44.0796 17.5415 44.0173 17.4172L40.6562 11.1346ZM27.025 16.111H26.7137C26.3404 16.111 26.278 15.9866 26.278 15.6755V5.97159C26.278 5.84721 26.2158 5.78492 26.1536 5.78492H21.3609C21.2364 5.78492 21.1742 5.84711 21.1742 5.97159C21.1742 8.58412 21.2364 12.9385 19.4935 16.1109H18.9957C18.8712 16.1109 18.8089 16.1731 18.8089 16.2975V19.7187C18.8089 19.843 18.9334 19.9053 18.9957 19.9053H20.116C20.3649 19.9053 20.4895 19.7187 20.4895 19.5321V17.6037H25.5312V19.7187C25.5312 19.7809 25.5934 19.9053 25.7179 19.9053H26.9627C27.0872 19.9053 27.274 19.7809 27.274 19.5321V16.2975C27.2118 16.1731 27.1495 16.1109 27.0251 16.1109L27.025 16.111ZM24.4108 16.111H20.9251C21.921 14.4937 22.8546 11.8811 22.8546 7.27795H24.4107V16.111H24.4108ZM31.8799 5.53626C29.328 5.53626 28.1454 8.7086 28.1454 12.192C28.1454 17.9149 32.1289 18.7857 34.8676 17.1062C34.992 17.044 34.992 16.9818 34.992 16.9196L34.8053 16.111C34.8053 16.0487 34.7431 15.9866 34.6186 15.9866C33.6227 15.9866 30.1372 17.7282 30.1372 12.0677C31.382 12.1921 31.382 12.1921 35.1166 12.1921C35.0543 9.33069 34.7432 5.53626 31.8799 5.53626ZM30.1995 10.7611C30.1995 6.22024 33.1871 5.3494 33.1871 10.6368C31.88 10.6368 31.3199 10.6368 30.1995 10.7611Z" fill="black"/>
</g>
<defs>
<clipPath id="clip0_75_519">
<rect width="51" height="20" fill="white"/>
</clipPath>
</defs>
</svg>
