<svg width="20" height="21" viewBox="0 0 20 21" fill="none" xmlns="http://www.w3.org/2000/svg">
<g clip-path="url(#clip0_1728_4274)">
<path d="M3.5293 12.8529H4.90184V14.0294H3.5293V12.8529Z" fill="#D8D8DD"/>
<path d="M19.9497 2.2647C19.7738 1.58874 19.1583 1.08823 18.4281 1.08823H5.10168C4.37145 1.08823 3.75596 1.58874 3.58008 2.2647H19.9497Z" fill="#D8D8DD"/>
<path d="M3.5293 5.79413V6.9706H14.9393C16.4304 6.9706 17.6434 8.1837 17.6434 9.67476V12.853H18.4278C19.2946 12.853 19.9998 12.1477 19.9998 11.2809V5.79413H3.5293Z" fill="#D8D8DD"/>
<path d="M16.4671 9.67472C16.4671 8.83237 15.7817 8.14703 14.9394 8.14703H1.57207C0.705213 8.14703 0 8.85225 0 9.71911V18.3397C0 19.2065 0.705213 19.9117 1.57207 19.9117H14.8984C15.7653 19.9117 16.4705 19.2065 16.4705 18.3397V17.1632L16.4671 9.67472ZM4.70586 17.5588H2.35293V16.3823H4.70586V17.5588ZM4.99394 15.2059H3.4374C2.8394 15.2059 2.35293 14.7194 2.35293 14.1214V12.7609C2.35293 12.1629 2.8394 11.6764 3.4374 11.6764H4.99394C5.59194 11.6764 6.07841 12.1629 6.07841 12.7609V14.1214C6.07841 14.7194 5.59194 15.2059 4.99394 15.2059ZM8.23526 17.5588H5.88233V16.3823H8.23526V17.5588ZM11.7647 17.5588H9.41173V16.3823H11.7647V17.5588ZM14.1176 17.5588H12.9411V16.3823H14.1176V17.5588Z" fill="#D8D8DD"/>
<path d="M3.5293 3.44116H19.9998V4.61763H3.5293V3.44116Z" fill="#D8D8DD"/>
</g>
<defs>
<clipPath id="clip0_1728_4274">
<rect width="19.9999" height="20" fill="white" transform="translate(0 0.5)"/>
</clipPath>
</defs>
</svg>
