<svg width="20" height="21" viewBox="0 0 20 21" fill="none" xmlns="http://www.w3.org/2000/svg">
<g clip-path="url(#clip0_1514_3706)">
<path d="M9.99997 0.5C6.48573 0.5 3.55469 3.33086 3.55469 6.94531C3.55469 8.32039 3.96789 9.54656 4.76089 10.6955L9.50673 18.101C9.73697 18.461 10.2635 18.4603 10.4932 18.101L15.2596 10.6704C16.0356 9.57344 16.4453 8.28543 16.4453 6.94531C16.4453 3.39137 13.5539 0.5 9.99997 0.5ZM9.99997 9.875C8.38463 9.875 7.0703 8.56066 7.0703 6.94531C7.0703 5.32996 8.38463 4.01562 9.99997 4.01562C11.6153 4.01562 12.9297 5.32996 12.9297 6.94531C12.9297 8.56066 11.6153 9.875 9.99997 9.875Z" fill="#D8D8DD"/>
<path d="M14.5806 13.9647L11.6302 18.5774C10.8664 19.7681 9.12923 19.7642 8.36919 18.5786L5.41397 13.9659C2.81382 14.567 1.21094 15.6683 1.21094 16.9844C1.21094 19.2681 5.73936 20.5 9.99997 20.5C14.2606 20.5 18.789 19.2681 18.789 16.9844C18.789 15.6674 17.1839 14.5655 14.5806 13.9647Z" fill="#D8D8DD"/>
</g>
<defs>
<clipPath id="clip0_1514_3706">
<rect width="19.9999" height="20" fill="white" transform="translate(0 0.5)"/>
</clipPath>
</defs>
</svg>
