<svg width="20" height="21" viewBox="0 0 20 21" fill="none" xmlns="http://www.w3.org/2000/svg">
<path d="M0.416965 4.21703C3.16188 6.54168 7.97834 10.6314 9.39396 11.9066C9.584 12.0788 9.78783 12.1663 9.99943 12.1663C10.2106 12.1663 10.4141 12.0796 10.6037 11.9083C12.0205 10.6318 16.837 6.54168 19.5819 4.21703C19.7528 4.07258 19.7789 3.81867 19.6405 3.64207C19.3207 3.23398 18.8438 3 18.3327 3H1.66614C1.15509 3 0.678175 3.23398 0.358372 3.64211C0.220013 3.81867 0.246067 4.07258 0.416965 4.21703Z" fill="#D8D8DD"/>
<path d="M19.7585 5.4768C19.6109 5.40805 19.4371 5.43204 19.3142 5.53704C17.5165 7.06087 15.148 9.07422 13.3617 10.6107C13.2677 10.6913 13.2148 10.8097 13.2169 10.9338C13.2189 11.0575 13.2763 11.1742 13.3731 11.2515C15.0329 12.5809 17.5341 14.4095 19.3403 15.7091C19.4123 15.7612 19.4977 15.7877 19.5836 15.7877C19.6487 15.7877 19.7138 15.7726 19.7736 15.7417C19.9128 15.6705 20.0003 15.5272 20.0003 15.371V5.85481C20.0002 5.69247 19.9058 5.54477 19.7585 5.4768Z" fill="#D8D8DD"/>
<path d="M0.659997 15.7092C2.46663 14.4095 4.96826 12.5809 6.62759 11.2515C6.72443 11.1742 6.78181 11.0574 6.78384 10.9338C6.78587 10.8097 6.73298 10.6913 6.639 10.6107C4.85268 9.07423 2.4837 7.06087 0.686052 5.53704C0.562342 5.43204 0.388202 5.40888 0.241718 5.47681C0.0944137 5.54478 0 5.69247 0 5.85482V15.371C0 15.5273 0.0874997 15.6705 0.22664 15.7417C0.286444 15.7727 0.351561 15.7877 0.416678 15.7877C0.502537 15.7877 0.587966 15.7613 0.659997 15.7092Z" fill="#D8D8DD"/>
<path d="M19.4883 16.8428C17.744 15.5948 14.5307 13.2682 12.6126 11.7113C12.4563 11.584 12.2301 11.588 12.0763 11.7207C11.6999 12.0491 11.3849 12.3258 11.1615 12.5268C10.4755 13.1461 9.52334 13.1461 8.83569 12.5259C8.61311 12.3254 8.29819 12.0478 7.92179 11.7207C7.76921 11.5872 7.54257 11.5831 7.38589 11.7113C5.47426 13.2628 2.25732 15.5923 0.510097 16.8427C0.412831 16.9127 0.350175 17.0206 0.337988 17.1398C0.326191 17.259 0.365644 17.3774 0.447441 17.4653C0.76283 17.8051 1.20716 18 1.66576 18H18.3324C18.791 18 19.2349 17.8051 19.551 17.4653C19.6324 17.3778 19.6723 17.2594 19.6605 17.1402C19.6483 17.021 19.5856 16.9128 19.4883 16.8428Z" fill="#D8D8DD"/>
</svg>
