<svg width="48" height="48" viewBox="0 0 48 48" fill="none" xmlns="http://www.w3.org/2000/svg">
<g clip-path="url(#clip0_108_2642)">
<path d="M10.3124 14.6251C10.3124 13.8485 9.68278 13.2189 8.90616 13.2189H1.40624C0.629619 13.2189 0 13.8485 0 14.6251C0 15.4017 0.629619 16.0314 1.40624 16.0314H8.90616C9.68278 16.0314 10.3124 15.4017 10.3124 14.6251Z" fill="#D8D8DD"/>
<path d="M11.0625 19.8751C11.0625 19.0985 10.4329 18.4688 9.65625 18.4688H3.65625C2.87962 18.4688 2.25 19.0985 2.25 19.8751C2.25 20.6517 2.87962 21.2813 3.65625 21.2813H9.65625C10.4329 21.2813 11.0625 20.6517 11.0625 19.8751Z" fill="#D8D8DD"/>
<path d="M10.5 23.7188H5.90625C5.12963 23.7188 4.5 24.3484 4.5 25.125C4.5 25.9017 5.12963 26.5313 5.90625 26.5313H10.5C11.2766 26.5313 11.9063 25.9017 11.9063 25.125C11.9063 24.3484 11.2766 23.7188 10.5 23.7188Z" fill="#D8D8DD"/>
<path d="M46.5932 7.03147C46.5932 6.25485 45.9635 5.62523 45.1869 5.62523H42.7026V6.44647C42.7026 7.24559 42.035 7.88965 41.2274 7.85102C40.4713 7.81483 39.8901 7.16328 39.8901 6.40635V5.62514H37.4057C36.6291 5.62514 35.9995 6.25476 35.9995 7.03137V10.5001H46.5932V7.03147Z" fill="#D8D8DD"/>
<path d="M32.9999 3.2815C32.9999 2.50488 32.3702 1.87526 31.5936 1.87526H26.9062V4.21899C26.9062 5.01801 26.2386 5.66216 25.431 5.62354C24.675 5.58735 24.0937 4.93579 24.0937 4.17886V1.87526H19.4062C18.6296 1.87526 18 2.50488 18 3.2815V10.5002H32.9999V3.2815Z" fill="#D8D8DD"/>
<path d="M46.6558 13.3127H15.4095L14.2909 6.97472C14.1723 6.30272 13.5885 5.81279 12.9062 5.81279H5.40624C4.62962 5.81279 4 6.44241 4 7.21903C4 7.99564 4.62962 8.62526 5.40624 8.62526H11.7263L15.7467 31.4069C13.7519 31.8271 12.2499 33.6009 12.2499 35.7187C12.2499 38.1483 14.2265 40.125 16.6561 40.125H17.7994C16.6748 43.0129 18.8237 46.1249 21.9061 46.1249C24.9761 46.1249 27.142 43.0246 26.0128 40.125H31.2993C30.1772 43.0064 32.3164 46.1249 35.4059 46.1249C38.4989 46.1249 40.6338 43.0039 39.5126 40.125H42.1559C42.9325 40.125 43.5621 39.4953 43.5621 38.7187C43.5621 37.9421 42.9325 37.3125 42.1559 37.3125H16.6561C15.7773 37.3125 15.0624 36.5975 15.0624 35.7187C15.0624 34.8399 15.7773 34.125 16.6561 34.125H42.9059C43.572 34.125 44.1466 33.6577 44.2826 33.0056L48.0325 15.0058C48.2145 14.1324 47.5465 13.3127 46.6558 13.3127Z" fill="#D8D8DD"/>
</g>
<defs>
<clipPath id="clip0_108_2642">
<rect width="48" height="48" fill="white"/>
</clipPath>
</defs>
</svg>
