<svg width="48" height="48" viewBox="0 0 48 48" fill="none" xmlns="http://www.w3.org/2000/svg">
<g clip-path="url(#clip0_37_310)">
<path d="M24.5641 31.7596C24.646 31.5374 24.7374 31.3192 24.8356 31.1025C24.3453 30.3931 24.0819 29.5531 24.0819 28.673C24.0819 27.5264 24.5297 26.4491 25.3363 25.6446C26.1465 24.8321 27.2246 24.3852 28.3721 24.3852C29.2515 24.3852 30.0899 24.6484 30.7991 25.1371C31.0164 25.0402 31.2343 24.9494 31.4577 24.8659C31.8266 22.8738 33.5759 21.3601 35.674 21.3601C36.1577 21.3601 36.6211 21.4484 37.0558 21.5973C37.8392 21.0087 38.3532 20.0803 38.3532 19.0252C38.3532 17.2426 36.9077 15.7975 35.1255 15.7975H33.16C32.8022 14.2632 32.1972 12.8283 31.3885 11.5296L32.7821 10.1372C34.0426 8.87714 34.0426 6.8329 32.7821 5.57286C31.521 4.31223 29.4755 4.31223 28.2174 5.57286L26.8246 6.96532C25.5256 6.156 24.0902 5.55105 22.5568 5.1939V3.22775C22.5568 1.44514 21.1098 0 19.3286 0C17.545 0 16.1009 1.44523 16.1009 3.22775V5.19371C14.5659 5.55085 13.13 6.1559 11.8316 6.96512L10.4401 5.57354C9.18053 4.31282 7.13512 4.31282 5.87557 5.57354C4.61456 6.83368 4.61456 8.87782 5.87557 10.1378L7.26706 11.5294C6.4589 12.8281 5.85327 14.2631 5.49759 15.7973H3.53026C1.74755 15.7973 0.302612 17.2425 0.302612 19.025C0.302612 20.8075 1.74765 22.2528 3.53026 22.2528H5.49739C5.85308 23.7872 6.45871 25.2228 7.2689 26.5215L5.87528 27.9139C4.61426 29.174 4.61426 31.2181 5.87528 32.4783C6.50564 33.1087 7.33142 33.4239 8.15739 33.4239C8.98317 33.4239 9.80904 33.1087 10.4398 32.4783L11.8328 31.0858C13.1312 31.8944 14.5656 32.4995 16.1006 32.8565V34.8225C16.1006 36.605 17.5446 38.0503 19.3283 38.0503C20.0723 38.0503 20.7501 37.7878 21.2955 37.3638C21.1474 36.9273 21.0574 36.4625 21.0574 35.9762C21.0574 33.8793 22.5706 32.1284 24.5641 31.7596ZM19.3283 25.4845C15.7605 25.4845 12.8671 22.5925 12.8671 19.0251C12.8671 15.4577 15.7606 12.5657 19.3283 12.5657C22.8951 12.5657 25.7871 15.4577 25.7871 19.0251C25.7871 22.5925 22.8951 25.4845 19.3283 25.4845Z" fill="#8C4BFF"/>
<path d="M46.0017 34.2813H44.8038C44.5642 32.9772 44.0552 31.7683 43.3315 30.717L44.1766 29.8731C44.8383 29.2111 44.8383 28.1371 44.1766 27.4751C43.8456 27.1435 43.4105 26.978 42.9773 26.978C42.5437 26.978 42.1089 27.1435 41.7779 27.4751L40.9328 28.32C39.8836 27.595 38.6731 27.0867 37.3681 26.8455V25.6486C37.3681 24.7124 36.61 23.9536 35.674 23.9536C34.738 23.9536 33.9799 24.7124 33.9799 25.6486V26.8455C32.6748 27.0868 31.4659 27.595 30.4145 28.3193L29.5701 27.4762C29.239 27.1451 28.8052 26.9788 28.3722 26.9788C27.9368 26.9788 27.5023 27.1451 27.1728 27.4762C26.5092 28.1372 26.5092 29.2112 27.1728 29.8732L28.0158 30.7171C27.2925 31.7685 26.7836 32.9773 26.5441 34.2813H25.3461C24.4101 34.2813 23.6505 35.0402 23.6505 35.9764C23.6505 36.9134 24.4101 37.6723 25.3461 37.6723H26.5441C26.7836 38.9763 27.2926 40.1845 28.0173 41.2364L27.1728 42.0812C26.5092 42.743 26.5092 43.8164 27.1728 44.4782C27.5038 44.8093 27.9369 44.9755 28.3722 44.9755C28.8051 44.9755 29.2389 44.8093 29.5701 44.4782L30.4145 43.6344C31.4659 44.3577 32.6748 44.866 33.9799 45.1071V46.3042C33.9799 47.241 34.738 48 35.674 48C36.61 48 37.3681 47.241 37.3681 46.3042V45.1079C38.6731 44.8661 39.8816 44.3577 40.9328 43.6336L41.7779 44.479C42.1089 44.81 42.5437 44.9756 42.9773 44.9756C43.4105 44.9756 43.8456 44.8101 44.1766 44.479C44.8383 43.8172 44.8383 42.743 44.1766 42.0812L43.3315 41.2364C44.0553 40.1844 44.5642 38.9763 44.8038 37.6723H46.0017C46.9377 37.6723 47.6974 36.9134 47.6974 35.9764C47.6974 35.0401 46.9377 34.2813 46.0017 34.2813ZM35.6738 39.4767C33.7401 39.4767 32.1733 37.9095 32.1733 35.9764C32.1733 34.0433 33.7401 32.4759 35.6738 32.4759C37.6075 32.4759 39.1738 34.0434 39.1738 35.9764C39.1739 37.9095 37.6076 39.4767 35.6738 39.4767Z" fill="#D4BCFF"/>
</g>
<defs>
<clipPath id="clip0_37_310">
<rect width="48" height="48" fill="white"/>
</clipPath>
</defs>
</svg>
