<svg width="20" height="21" viewBox="0 0 20 21" fill="none" xmlns="http://www.w3.org/2000/svg">
<g clip-path="url(#clip0_1630_3694)">
<path d="M0 3.89798V7.87121C0 8.86674 2.44892 9.97601 5.96359 9.97601C9.47826 9.97601 11.9272 8.86674 11.9272 7.87121V3.89798C10.8547 4.81352 8.64443 5.4156 5.96359 5.4156C3.28275 5.4156 1.07244 4.81352 0 3.89798Z" fill="#D8D8DD"/>
<path d="M0 9.16V12.7824C0 13.778 2.44892 14.8872 5.96359 14.8872C9.47826 14.8872 11.9272 13.778 11.9272 12.7824V9.16C10.8547 10.0755 8.64443 10.6776 5.96359 10.6776C3.28275 10.6776 1.07244 10.0755 0 9.16Z" fill="#D8D8DD"/>
<path d="M0 14.0712V18.0444C0 19.04 2.44892 20.1492 5.96359 20.1492C9.47826 20.1492 11.9272 19.04 11.9272 18.0444V14.0712C10.8547 14.9867 8.64443 15.5888 5.96359 15.5888C3.28275 15.5888 1.07244 14.9867 0 14.0712Z" fill="#D8D8DD"/>
<path d="M11.9272 2.60923C11.9272 1.44669 9.25713 0.504425 5.96359 0.504425C2.67005 0.504425 0 1.44669 0 2.60923C0 3.7716 2.67005 4.71403 5.96359 4.71403C9.25713 4.71403 11.9272 3.7716 11.9272 2.60923Z" fill="#D8D8DD"/>
<path d="M15.4353 5.41563V2.25842C15.4353 2.06469 15.5924 1.90762 15.7861 1.90762H17.9555C18.1262 2.39083 18.6204 2.68065 19.1255 2.59398C19.6308 2.50731 20 2.06932 20 1.55682C20 1.04415 19.6308 0.606164 19.1255 0.519492C18.6204 0.432819 18.1262 0.722812 17.9555 1.20602H15.7861C15.2049 1.20602 14.7337 1.67707 14.7337 2.25842V5.41563C14.7337 5.60936 14.5766 5.76643 14.3829 5.76643H12.6289V6.46803H14.3829C14.9641 6.46803 15.4353 5.99681 15.4353 5.41563ZM18.5925 1.20602H19.2941V1.90762H18.5925V1.20602Z" fill="#D4BCFF"/>
<path d="M18.9433 9.27442C18.4986 9.2751 18.1026 9.55636 17.9555 9.97602H12.6289V10.6776H17.9555C18.1346 11.1809 18.6631 11.4695 19.1834 11.3482C19.7036 11.2271 20.0503 10.7348 19.9888 10.2042C19.9273 9.67352 19.4775 9.27339 18.9433 9.27442ZM19.2941 10.6776H18.5925V9.97602H19.2941V10.6776Z" fill="#D4BCFF"/>
<path d="M18.9433 18.3952C18.4986 18.3959 18.1026 18.6772 17.9555 19.0968H15.7861C15.5924 19.0968 15.4353 18.9398 15.4353 18.746V16.6412C15.4353 16.0599 14.9641 15.5888 14.3829 15.5888H12.6289V16.2904H14.3829C14.5766 16.2904 14.7337 16.4475 14.7337 16.6412V18.746C14.7337 19.3272 15.2049 19.7984 15.7861 19.7984H17.9555C18.1346 20.3017 18.6631 20.5903 19.1834 20.469C19.7036 20.3479 20.0503 19.8557 19.9888 19.325C19.9273 18.7943 19.4775 18.3942 18.9433 18.3952ZM19.2941 19.7984H18.5925V19.0968H19.2941V19.7984Z" fill="#D4BCFF"/>
</g>
<defs>
<clipPath id="clip0_1630_3694">
<rect width="19.9999" height="20" fill="white" transform="translate(0 0.5)"/>
</clipPath>
</defs>
</svg>
