<svg width="44" height="44" viewBox="0 0 44 44" fill="none" xmlns="http://www.w3.org/2000/svg">
<path d="M31.829 36.7982C32.2793 35.8192 33.0813 35.1016 34.0508 34.7634V31.1094C34.0508 28.977 35.7857 27.2422 37.918 27.2422H40.1328C40.5847 27.2422 41.0184 27.3208 41.4219 27.4639V3.86719C41.4219 1.73482 39.6871 0 37.5547 0H11.7734C9.64107 0 7.90625 1.73482 7.90625 3.86719V5.75781H30.0781C32.9213 5.75781 35.2344 8.07091 35.2344 10.9141V22.9453C35.2344 25.7885 32.9213 28.1016 30.0781 28.1016H7.90625V40.1328C7.90625 42.2652 9.64107 44 11.7734 44H35.0369L32.4062 40.9308C31.4115 39.7703 31.1903 38.1868 31.829 36.7982Z" fill="#F9FAFF"/>
<path d="M42.7084 37.125H41.4218V31.1094C41.4218 30.3975 40.8447 29.8203 40.1328 29.8203H37.918C37.2061 29.8203 36.6289 30.3975 36.6289 31.1094V37.125H35.3423C34.241 37.125 33.6469 38.4168 34.3636 39.253L38.0466 43.5499C38.561 44.15 39.4896 44.15 40.0041 43.5499L43.6871 39.253C44.4039 38.4168 43.8097 37.125 42.7084 37.125Z" fill="white"/>
<path d="M16.5007 13.4922H14.9277C14.9295 14.5424 14.9324 16.2595 14.9324 16.9201C14.9324 17.7076 14.9374 19.3503 14.9406 20.363C15.4989 20.3598 16.1887 20.3548 16.5569 20.3484C18.3123 20.3177 19.1118 18.5547 19.1118 16.9297C19.1118 15.2679 18.4259 13.4922 16.5007 13.4922Z" fill="white"/>
<path d="M8.15784 13.4922H6.62695C6.62859 14.0611 6.63039 14.7554 6.63039 15.058C6.63039 15.4148 6.63348 16.0836 6.63623 16.6296C7.16604 16.6268 7.80868 16.6238 8.15784 16.6238C9.03234 16.6238 9.77115 15.9068 9.77115 15.0581C9.77115 14.2093 9.03234 13.4922 8.15784 13.4922Z" fill="white"/>
<path d="M32.6562 22.9453V10.9141C32.6562 9.49016 31.502 8.33594 30.0781 8.33594H2.57812C1.15423 8.33594 0 9.49016 0 10.9141V22.9453C0 24.3692 1.15423 25.5234 2.57812 25.5234H30.0781C31.502 25.5234 32.6562 24.3692 32.6562 22.9453ZM8.15693 18.3425C7.80622 18.3425 7.1549 18.3455 6.62346 18.3483V21.2266C6.62346 21.7012 6.23872 22.0859 5.76409 22.0859C5.28945 22.0859 4.90471 21.7012 4.90471 21.2266V12.6356C4.90402 12.4071 4.99426 12.1879 5.15539 12.0262C5.31661 11.8644 5.53566 11.7735 5.76409 11.7735H8.15693C9.99419 11.7735 11.489 13.247 11.489 15.0581C11.489 16.8691 9.99427 18.3425 8.15693 18.3425ZM19.736 20.4656C18.9616 21.4762 17.8435 22.0449 16.5873 22.0669C15.8953 22.079 14.1613 22.0857 14.0878 22.0859C14.0867 22.0859 14.0857 22.0859 14.0846 22.0859C13.8578 22.0859 13.6402 21.9963 13.4791 21.8365C13.3174 21.6758 13.226 21.4576 13.2252 21.2297C13.2251 21.1985 13.214 18.1016 13.214 16.9201C13.214 15.9403 13.2078 12.6344 13.2078 12.6344C13.2074 12.4062 13.2977 12.1871 13.4589 12.0257C13.6201 11.8642 13.8389 11.7734 14.0671 11.7734H16.501C19.0908 11.7734 20.8308 13.8456 20.8308 16.9297C20.8308 18.2884 20.442 19.5441 19.736 20.4656ZM26.8921 13.4922H24.2683V15.9889H26.6154C27.09 15.9889 27.4747 16.3737 27.4747 16.8483C27.4747 17.3229 27.09 17.7077 26.6154 17.7077H24.2683V21.2266C24.2683 21.7012 23.8836 22.0859 23.4089 22.0859C22.9343 22.0859 22.5496 21.7012 22.5496 21.2266V12.6328C22.5496 12.4049 22.6401 12.1863 22.8013 12.0251C22.9624 11.864 23.181 11.7734 23.4089 11.7734H26.8921C27.3667 11.7734 27.7515 12.1582 27.7515 12.6328C27.7515 13.1074 27.3667 13.4922 26.8921 13.4922Z" fill="white"/>
</svg>
