<svg width="48" height="35" viewBox="0 0 48 35" fill="none" xmlns="http://www.w3.org/2000/svg">
<path d="M36.931 8.43921C36.5148 8.43921 36.0897 8.46437 35.6671 8.51345C34.1931 6.93684 32.3066 5.83963 30.2446 5.3187C29.5623 2.27621 26.8129 0 23.5225 0C23.5123 0 23.5021 0 23.4907 0V2.7166C23.5021 2.7166 23.5123 2.71534 23.5225 2.71534C25.8048 2.71534 27.6543 4.54109 27.6543 6.79088C27.6543 9.04192 25.8048 10.8664 23.5225 10.8664C23.5123 10.8664 23.5021 10.8652 23.4907 10.8652V13.583C23.5021 13.583 23.5123 13.5843 23.5225 13.5843C26.4743 13.5843 28.9908 11.7522 29.9696 9.17907C31.3023 9.65344 32.4772 10.5091 33.3568 11.6818L34.1001 12.6771L35.3221 12.4028C35.8694 12.2807 36.4104 12.2178 36.931 12.2178C40.9215 12.2178 44.1661 15.4201 44.1661 19.3572C44.1661 23.2918 40.9202 26.4941 36.931 26.4941H30.186C29.4172 23.5737 26.725 21.4157 23.5225 21.4157C23.511 21.4157 23.5008 21.417 23.4894 21.417V24.1336C23.5008 24.1336 23.511 24.1323 23.5225 24.1323C25.8035 24.1323 27.653 25.9568 27.653 28.2079C27.653 30.4577 25.8035 32.2821 23.5225 32.2821C23.511 32.2821 23.5008 32.2809 23.4894 32.2809V34.9987C23.5008 34.9987 23.511 35 23.5225 35C26.5939 35 29.1944 33.0157 30.0816 30.2752H36.931C43.0345 30.2752 48 25.3768 48 19.3572C48 13.3364 43.0345 8.43921 36.931 8.43921Z" fill="#8C4BFF"/>
<path d="M29.9696 9.17907C28.9908 11.7522 26.4743 13.5843 23.5225 13.5843V21.4157C26.725 21.4157 29.4172 23.5737 30.186 26.4941H36.931C40.9202 26.4941 44.1661 23.2918 44.1661 19.3572C44.1661 15.4201 40.9215 12.2178 36.931 12.2178C36.4104 12.2178 35.8694 12.2807 35.3221 12.4028L34.1001 12.6771L33.3568 11.6818C32.4772 10.5091 31.3023 9.65344 29.9696 9.17907Z" fill="#8C4BFF"/>
<path d="M19.4602 28.2079C19.4602 25.9681 21.2615 24.1512 23.4894 24.1349V21.4182C20.3546 21.4321 17.7227 23.5862 16.9697 26.4991H9.35672C6.2745 26.4991 3.7677 23.9826 3.7677 20.8898C3.7677 17.7957 6.2745 15.2792 9.35672 15.2792C9.45097 15.2792 9.55507 15.2866 9.71167 15.2977L9.71572 15.298L11.2944 15.4113L11.7184 13.9441C12.4589 11.3823 14.5655 9.46973 17.0935 8.91735C17.9792 11.6176 20.5047 13.5692 23.4894 13.583V10.8664C21.2615 10.8488 19.4602 9.03185 19.4602 6.79213C19.4602 4.55242 21.2615 2.73422 23.4894 2.7166V0C20.3471 0.0150992 17.7115 2.17806 16.9659 5.10102C13.3096 5.66473 10.1085 8.09067 8.59617 11.5308C6.35206 11.712 4.26681 12.6922 2.67442 14.3241C0.949432 16.0895 0 18.4211 0 20.8885C0 26.0663 4.19801 30.279 9.35672 30.279H17.0748C17.9441 33.0082 20.4847 34.9874 23.4894 35V32.2834C21.2615 32.2658 19.4602 30.4488 19.4602 28.2079Z" fill="#D4BCFF"/>
<path d="M16.9697 26.4991C17.7227 23.5862 20.3546 21.4321 23.4894 21.4182V13.583C20.5047 13.5692 17.9792 11.6176 17.0935 8.91735C14.5655 9.46973 12.4589 11.3823 11.7184 13.9441L11.2944 15.4113L9.71572 15.298L9.71167 15.2977C9.55507 15.2866 9.45097 15.2792 9.35672 15.2792C6.2745 15.2792 3.7677 17.7957 3.7677 20.8898C3.7677 23.9826 6.2745 26.4991 9.35672 26.4991H16.9697Z" fill="#D4BCFF"/>
</svg>
