<svg width="48" height="48" viewBox="0 0 48 48" fill="none" xmlns="http://www.w3.org/2000/svg">
<g clip-path="url(#clip0_1136_1679)">
<path d="M23.6579 23.1217C26.8344 23.1217 29.585 21.9825 31.8324 19.7347C34.0798 17.4872 35.2191 14.7374 35.2191 11.5605C35.2191 8.38473 34.0798 5.6345 31.832 3.38634C29.5842 1.13928 26.834 0 23.6579 0C20.481 0 17.7311 1.13928 15.4837 3.38671C13.2363 5.63413 12.0966 8.38437 12.0966 11.5605C12.0966 14.7374 13.2363 17.4876 15.4841 19.735C17.7319 21.9821 20.4821 23.1217 23.6579 23.1217V23.1217Z" fill="#D4BCFF"/>
<path d="M43.8871 36.9095C43.8223 35.9742 43.6912 34.9539 43.4982 33.8765C43.3033 32.7911 43.0525 31.765 42.7522 30.8271C42.442 29.8578 42.0201 28.9005 41.4987 27.9831C40.9574 27.031 40.3217 26.2019 39.6083 25.5196C38.8623 24.8059 37.949 24.2321 36.8928 23.8135C35.8403 23.3971 34.674 23.1862 33.4263 23.1862C32.9363 23.1862 32.4624 23.3872 31.5472 23.983C30.984 24.3503 30.3252 24.7751 29.5898 25.245C28.9611 25.6456 28.1093 26.021 27.0571 26.3608C26.0306 26.693 24.9884 26.8614 23.9597 26.8614C22.931 26.8614 21.8892 26.693 20.8616 26.3608C19.8105 26.0214 18.9587 25.646 18.3307 25.2454C17.6023 24.7799 16.9431 24.3551 16.3715 23.9827C15.4574 23.3868 14.9832 23.1858 14.4932 23.1858C13.2451 23.1858 12.0791 23.3971 11.027 23.8138C9.97156 24.2317 9.05786 24.8055 8.31116 25.52C7.59814 26.2026 6.96204 27.0314 6.42151 27.9831C5.90039 28.9005 5.47852 29.8574 5.16797 30.8275C4.86804 31.7653 4.61719 32.7911 4.42236 33.8765C4.22937 34.9525 4.09827 35.9731 4.03345 36.9106C3.96973 37.829 3.9375 38.7823 3.9375 39.7451C3.9375 42.2507 4.73401 44.2791 6.30469 45.7751C7.85596 47.2512 9.90857 48.0001 12.4047 48.0001H35.517C38.0131 48.0001 40.0649 47.2516 41.6166 45.7751C43.1876 44.2802 43.9841 42.2514 43.9841 39.7447C43.9838 38.7775 43.9512 37.8236 43.8871 36.9095V36.9095Z" fill="#8C4BFF"/>
<path d="M20 30.7761C20 28.567 21.7909 31.7761 24 31.7761C26.2091 31.7761 28 28.567 28 30.7761C28 32.9853 26.2091 34.7761 24 34.7761C21.7909 34.7761 20 32.9853 20 30.7761Z" fill="white"/>
</g>
<defs>
<clipPath id="clip0_1136_1679">
<rect width="48" height="48" fill="white"/>
</clipPath>
</defs>
</svg>
