<svg width="20" height="21" viewBox="0 0 20 21" fill="none" xmlns="http://www.w3.org/2000/svg">
<g clip-path="url(#clip0_1728_4252)">
<path d="M20.0007 14.0352C20.0007 11.5533 18.577 9.33835 16.4445 8.26093C16.3783 13.0195 12.5203 16.8776 7.76172 16.9438C8.83914 19.0762 11.0541 20.5 13.5359 20.5C14.6996 20.5 15.8311 20.1901 16.8254 19.6013L19.9725 20.4718L19.102 17.3246C19.6908 16.3304 20.0007 15.1988 20.0007 14.0352Z" fill="#D8D8DD"/>
<path d="M15.2734 8.13672C15.2734 3.92575 11.8476 0.5 7.63669 0.5C3.42574 0.5 0 3.92575 0 8.13672C0 9.50909 0.365294 10.8453 1.05896 12.0184L0.0280761 15.7452L3.75502 14.7145C4.92811 15.4081 6.26432 15.7734 7.63669 15.7734C11.8476 15.7734 15.2734 12.3477 15.2734 8.13672ZM6.46482 6.35938H5.29295C5.29295 5.06696 6.34427 4.01562 7.63669 4.01562C8.9291 4.01562 9.98043 5.06696 9.98043 6.35938C9.98043 7.01535 9.70272 7.64584 9.21826 8.08896L8.22262 9.00021V9.91406H7.05075V8.48416L8.42709 7.2244C8.67306 6.99933 8.80856 6.69217 8.80856 6.35938C8.80856 5.71317 8.2829 5.1875 7.63669 5.1875C6.99048 5.1875 6.46482 5.71317 6.46482 6.35938ZM7.05075 11.0859H8.22262V12.2578H7.05075V11.0859Z" fill="#D8D8DD"/>
</g>
<defs>
<clipPath id="clip0_1728_4252">
<rect width="19.9999" height="20" fill="white" transform="translate(0 0.5)"/>
</clipPath>
</defs>
</svg>
